<svg xmlns="http://www.w3.org/2000/svg" xmlns:xlink="http://www.w3.org/1999/xlink" width="1827.951" height="1285.621" viewBox="0 0 1827.951 1285.621"><defs><style>.a,.c,.d,.e{fill:none;}.b{clip-path:url(#a);}.c,.d,.e{stroke:#ccc;stroke-miterlimit:10;}.c{stroke-width:2px;}.c,.d{stroke-dasharray:17.15 17.15;}.d,.e{stroke-width:6px;}.e{stroke-dasharray:20 15;}</style><clipPath id="a"><rect class="a" width="1790" height="1224" transform="translate(1298.42 1352.42)"/></clipPath></defs><g transform="translate(-1298.42 -1352.42)"><g class="b"><line class="c" y1="3067.43" x2="3067.43" transform="translate(159.71 159.71)"/><line class="c" y1="3067.43" x2="3067.43" transform="translate(71.71 71.71)"/><line class="c" y1="3067.43" x2="3067.43" transform="translate(0.71 0.71)"/><line class="c" y1="3067.43" x2="3067.43" transform="translate(237.71 237.71)"/><line class="c" y1="3067.43" x2="3067.43" transform="translate(315.71 315.71)"/><line class="c" y1="3067.43" x2="3067.43" transform="translate(393.71 393.71)"/><line class="c" y1="3067.43" x2="3067.43" transform="translate(471.71 471.71)"/><line class="c" y1="3067.43" x2="3067.43" transform="translate(549.71 549.71)"/><line class="c" y1="3067.43" x2="3067.43" transform="translate(627.71 627.71)"/><line class="c" y1="3067.43" x2="3067.43" transform="translate(705.71 705.71)"/><line class="c" y1="3067.43" x2="3067.43" transform="translate(783.71 783.71)"/><line class="c" y1="3067.43" x2="3067.43" transform="translate(861.71 861.71)"/><line class="c" y1="3067.43" x2="3067.43" transform="translate(939.71 939.71)"/><line class="c" y1="3067.43" x2="3067.43" transform="translate(1017.71 1017.71)"/><line class="c" y1="3067.43" x2="3067.43" transform="translate(1095.71 1095.71)"/></g><line class="d" y1="139.23" x2="139.22" transform="translate(1597.66 1470.84)"/><line class="e" x1="455.5" y2="455.5" transform="translate(1998.92 2180.42)"/><line class="e" x1="455.5" y2="455.5" transform="translate(2668.75 1355.37)"/></g></svg>