<svg width="775" height="517" viewBox="0 0 775 517" fill="none" xmlns="http://www.w3.org/2000/svg">
<g clip-path="url(#clip0_267_328)">
<path d="M774.675 372.118H772.529V396.831H774.675V372.118Z" fill="#30302F"/>
<path d="M587.84 517C660.779 517 719.908 494.464 719.908 466.664C719.908 438.864 660.779 416.328 587.84 416.328C514.9 416.328 455.771 438.864 455.771 466.664C455.771 494.464 514.9 517 587.84 517Z" fill="#B7B7B7"/>
<path d="M719.908 457.759H455.779V466.672H719.908V457.759Z" fill="#B7B7B7"/>
<path d="M587.84 508.095C660.779 508.095 719.908 485.559 719.908 457.759C719.908 429.959 660.779 407.423 587.84 407.423C514.9 407.423 455.771 429.959 455.771 457.759C455.771 485.559 514.9 508.095 587.84 508.095Z" fill="#DF7E26"/>
<path d="M337.5 81.1123H52.8985C41.67 81.1123 32.5675 90.2097 32.5675 101.432V414.19C32.5675 425.413 41.67 434.51 52.8985 434.51H337.5C348.729 434.51 357.831 425.413 357.831 414.19V101.432C357.831 90.2097 348.729 81.1123 337.5 81.1123Z" fill="#B7B7B7"/>
<path d="M134.618 273.109L149.461 265.082H244.265L259.107 273.109V304.7L244.265 312.727H149.461L134.618 304.7V273.109Z" fill="#F3F4F5"/>
<path d="M91.4378 228.259C141.938 228.259 182.876 187.343 182.876 136.871C182.876 86.3998 141.938 45.4844 91.4378 45.4844C40.9381 45.4844 0 86.3998 0 136.871C0 187.343 40.9381 228.259 91.4378 228.259Z" fill="#DF7E26"/>
<path d="M89.4182 161.805C103.66 161.805 115.206 150.266 115.206 136.031C115.206 121.797 103.66 110.258 89.4182 110.258C75.1759 110.258 63.6302 121.797 63.6302 136.031C63.6302 150.266 75.1759 161.805 89.4182 161.805Z" fill="#30302F"/>
<path d="M89.4182 150.129C97.2086 150.129 103.524 143.818 103.524 136.032C103.524 128.245 97.2086 121.934 89.4182 121.934C81.6279 121.934 75.3125 128.245 75.3125 136.032C75.3125 143.818 81.6279 150.129 89.4182 150.129Z" fill="#B7B7B7"/>
<path d="M89.4182 142.246C92.8519 142.246 95.6355 139.464 95.6355 136.032C95.6355 132.6 92.8519 129.818 89.4182 129.818C85.9845 129.818 83.2009 132.6 83.2009 136.032C83.2009 139.464 85.9845 142.246 89.4182 142.246Z" fill="#B7B7B7"/>
<path d="M89.4181 106.752C89.6418 106.752 89.8632 106.796 90.0698 106.882C90.2764 106.967 90.4641 107.092 90.6222 107.25C90.7804 107.408 90.9058 107.596 90.9914 107.803C91.0769 108.009 91.121 108.23 91.121 108.454V116.488H87.7074V108.446C87.7084 108.222 87.7535 108.001 87.84 107.795C87.9266 107.589 88.0529 107.402 88.2117 107.245C88.3706 107.088 88.5589 106.963 88.7659 106.878C88.9729 106.794 89.1945 106.751 89.4181 106.752Z" fill="#30302F"/>
<path d="M89.4182 165.312C88.9665 165.312 88.5334 165.133 88.2141 164.814C87.8947 164.495 87.7153 164.062 87.7153 163.611V155.576H91.1289V163.611C91.1289 163.835 91.0846 164.057 90.9985 164.264C90.9125 164.471 90.7863 164.659 90.6274 164.817C90.4684 164.975 90.2797 165.1 90.0722 165.185C89.8647 165.27 89.6424 165.314 89.4182 165.312Z" fill="#30302F"/>
<path d="M118.715 136.032C118.715 136.483 118.535 136.916 118.216 137.235C117.897 137.555 117.464 137.734 117.012 137.734H108.973V134.322H117.012C117.464 134.322 117.897 134.502 118.216 134.821C118.535 135.14 118.715 135.573 118.715 136.024V136.032Z" fill="#30302F"/>
<path d="M60.1217 136.032C60.1217 135.581 60.3011 135.148 60.6205 134.829C60.9398 134.51 61.3729 134.331 61.8246 134.331H69.8635V137.742H61.8246C61.6003 137.742 61.3782 137.698 61.1711 137.612C60.964 137.526 60.7759 137.4 60.6177 137.241C60.4594 137.082 60.3342 136.894 60.2491 136.686C60.164 136.479 60.1207 136.257 60.1217 136.032Z" fill="#30302F"/>
<path d="M110.137 156.735C109.818 157.055 109.385 157.234 108.933 157.234C108.482 157.234 108.049 157.055 107.729 156.735L102.045 151.054L104.459 148.642L110.137 154.317C110.297 154.476 110.424 154.664 110.511 154.871C110.597 155.079 110.642 155.302 110.642 155.526C110.642 155.751 110.597 155.974 110.511 156.181C110.424 156.389 110.297 156.577 110.137 156.735Z" fill="#30302F"/>
<path d="M68.696 115.329C69.0109 115.011 69.4384 114.83 69.8859 114.825C70.3334 114.819 70.765 114.99 71.0873 115.301L76.7997 121.01L74.3859 123.422L68.6736 117.713C68.3542 117.394 68.1748 116.961 68.1748 116.51C68.1748 116.058 68.3542 115.626 68.6736 115.306L68.696 115.329Z" fill="#30302F"/>
<path d="M110.131 115.326C110.45 115.645 110.629 116.078 110.629 116.53C110.629 116.981 110.45 117.414 110.131 117.733L104.441 123.42L102.027 121.007L107.739 115.298C108.062 114.988 108.493 114.817 108.941 114.822C109.388 114.827 109.816 115.008 110.131 115.326Z" fill="#30302F"/>
<path d="M68.7008 156.737C68.5427 156.579 68.4173 156.391 68.3317 156.185C68.2461 155.978 68.2021 155.757 68.2021 155.534C68.2021 155.31 68.2461 155.089 68.3317 154.882C68.4173 154.676 68.5427 154.488 68.7008 154.33L74.3852 148.649L76.7933 151.056L71.1146 156.731C70.9567 156.891 70.7689 157.017 70.562 157.104C70.3551 157.19 70.1331 157.235 69.9089 157.235C69.6846 157.236 69.4624 157.192 69.2551 157.107C69.0478 157.021 68.8594 156.896 68.7008 156.737Z" fill="#30302F"/>
<path d="M117.614 99.2479L139.394 80.3768C140.295 79.5945 141.458 79.1798 142.651 79.215C143.844 79.2502 144.98 79.7328 145.833 80.5668C156.395 90.8262 163.857 103.847 167.368 118.143C167.661 119.314 167.496 120.553 166.907 121.607C166.319 122.661 165.351 123.452 164.2 123.818L136.82 132.597C136.177 132.804 135.496 132.871 134.824 132.795C134.153 132.718 133.505 132.499 132.925 132.152C132.344 131.805 131.845 131.338 131.46 130.783C131.074 130.228 130.812 129.597 130.69 128.932C128.938 120.171 124.332 112.238 117.59 106.372C117.086 105.925 116.683 105.375 116.407 104.76C116.132 104.145 115.991 103.478 115.993 102.805C115.995 102.131 116.141 101.465 116.42 100.852C116.7 100.239 117.107 99.6919 117.614 99.2479Z" fill="#292929"/>
<path d="M117.614 99.2479L139.394 80.3768C140.295 79.5945 141.458 79.1798 142.651 79.215C143.844 79.2502 144.98 79.7328 145.833 80.5668C156.395 90.8262 163.857 103.847 167.368 118.143C167.661 119.314 167.496 120.553 166.907 121.607C166.319 122.661 165.351 123.452 164.2 123.818L136.82 132.597C136.177 132.804 135.496 132.871 134.824 132.795C134.153 132.718 133.505 132.499 132.925 132.152C132.344 131.805 131.845 131.338 131.46 130.783C131.074 130.228 130.812 129.597 130.69 128.932C128.938 120.171 124.332 112.238 117.59 106.372C117.086 105.925 116.683 105.375 116.407 104.76C116.132 104.145 115.991 103.478 115.993 102.805C115.995 102.131 116.141 101.465 116.42 100.852C116.7 100.239 117.107 99.6919 117.614 99.2479Z" fill="#B7B7B7"/>
<path d="M64.7945 99.2394L43.0538 80.3841C42.1518 79.5973 40.9858 79.1797 39.7891 79.215C38.5923 79.2502 37.453 79.7356 36.5989 80.5741C26.031 90.8248 18.5627 103.841 15.0482 118.134C14.7534 119.307 14.917 120.547 15.5057 121.603C16.0943 122.659 17.0637 123.451 18.2163 123.818L45.5803 132.596C46.225 132.805 46.9067 132.873 47.5799 132.796C48.2531 132.72 48.9021 132.5 49.4834 132.152C50.0647 131.804 50.5649 131.336 50.9503 130.779C51.3358 130.223 51.5977 129.59 51.7184 128.923C53.4739 120.171 58.0769 112.244 64.8104 106.379C65.3177 105.933 65.7237 105.383 66.0013 104.766C66.279 104.15 66.4218 103.482 66.4203 102.806C66.4188 102.13 66.273 101.462 65.9926 100.847C65.7123 100.232 65.3038 99.684 64.7945 99.2394Z" fill="#B7B7B7"/>
<path d="M117.614 99.2479L139.394 80.3768C140.295 79.5945 141.458 79.1798 142.651 79.215C143.844 79.2502 144.98 79.7328 145.833 80.5668C156.395 90.8262 163.857 103.847 167.368 118.143C167.661 119.314 167.496 120.553 166.907 121.607C166.319 122.661 165.351 123.452 164.2 123.818L136.82 132.597C136.177 132.804 135.496 132.871 134.824 132.795C134.153 132.718 133.505 132.499 132.925 132.152C132.344 131.805 131.845 131.338 131.46 130.783C131.074 130.228 130.812 129.597 130.69 128.932C128.938 120.171 124.332 112.238 117.59 106.372C117.086 105.925 116.683 105.375 116.407 104.76C116.132 104.145 115.991 103.478 115.993 102.805C115.995 102.131 116.141 101.465 116.42 100.852C116.7 100.239 117.107 99.6919 117.614 99.2479Z" fill="#B7B7B7"/>
<path d="M70.2277 178.302L64.0659 206.435C63.8111 207.586 63.9944 208.792 64.58 209.816C65.1656 210.84 66.1117 211.61 67.2339 211.976C81.3234 216.368 96.3665 216.7 110.636 212.933C111.804 212.629 112.813 211.892 113.457 210.872C114.102 209.852 114.333 208.625 114.105 207.44L108.704 179.204C108.576 178.542 108.309 177.915 107.921 177.363C107.532 176.812 107.03 176.35 106.448 176.008C105.867 175.666 105.219 175.451 104.548 175.379C103.878 175.306 103.199 175.377 102.558 175.587C94.0435 178.241 84.8898 178.005 76.5242 174.914C75.89 174.677 75.2124 174.578 74.5369 174.624C73.8613 174.67 73.2034 174.86 72.6072 175.181C72.011 175.502 71.4902 175.946 71.0799 176.484C70.6695 177.023 70.379 177.642 70.2277 178.302Z" fill="#B7B7B7"/>
<path d="M130.571 129.082C128.779 120.314 124.221 112.352 117.566 106.364C117.064 105.914 116.663 105.363 116.391 104.747C116.118 104.13 115.98 103.463 115.985 102.789C115.99 102.116 116.139 101.451 116.421 100.839C116.703 100.227 117.113 99.6816 117.622 99.2398L131.276 87.3662C142.673 98.0139 150.641 111.811 154.165 127L136.622 132.62C135.992 132.815 135.329 132.877 134.674 132.802C134.019 132.726 133.386 132.516 132.817 132.183C132.248 131.85 131.755 131.402 131.368 130.869C130.981 130.335 130.71 129.726 130.571 129.082Z" fill="#30302F"/>
<path d="M102.684 175.421C94.1232 178.043 84.9464 177.855 76.5004 174.883C75.8649 174.657 75.1887 174.569 74.5166 174.625C73.8445 174.68 73.192 174.878 72.6024 175.206C72.0128 175.533 71.4996 175.982 71.097 176.522C70.6944 177.063 70.4115 177.683 70.2673 178.342L66.4102 195.994C81.2185 200.897 97.1521 201.283 112.181 197.102L108.719 179.015C108.587 178.367 108.321 177.754 107.938 177.216C107.555 176.677 107.064 176.224 106.496 175.886C105.928 175.547 105.296 175.331 104.639 175.251C103.983 175.171 103.317 175.229 102.684 175.421Z" fill="#30302F"/>
<path d="M302.287 227.419C352.787 227.419 393.725 186.503 393.725 136.032C393.725 85.5599 352.787 44.6445 302.287 44.6445C251.788 44.6445 210.85 85.5599 210.85 136.032C210.85 186.503 251.788 227.419 302.287 227.419Z" fill="#DF7E26"/>
<path d="M300.26 160.966C314.502 160.966 326.048 149.427 326.048 135.193C326.048 120.958 314.502 109.419 300.26 109.419C286.018 109.419 274.472 120.958 274.472 135.193C274.472 149.427 286.018 160.966 300.26 160.966Z" fill="#30302F"/>
<path d="M300.26 149.291C308.05 149.291 314.366 142.979 314.366 135.193C314.366 127.407 308.05 121.095 300.26 121.095C292.469 121.095 286.154 127.407 286.154 135.193C286.154 142.979 292.469 149.291 300.26 149.291Z" fill="#B7B7B7"/>
<path d="M300.26 141.406C303.693 141.406 306.477 138.624 306.477 135.192C306.477 131.761 303.693 128.979 300.26 128.979C296.826 128.979 294.042 131.761 294.042 135.192C294.042 138.624 296.826 141.406 300.26 141.406Z" fill="#B7B7B7"/>
<path d="M300.26 105.913C300.711 105.913 301.145 106.092 301.464 106.412C301.783 106.731 301.963 107.164 301.963 107.615V115.649H298.589V107.655C298.583 107.43 298.622 107.207 298.704 106.998C298.785 106.789 298.907 106.598 299.062 106.437C299.217 106.275 299.403 106.145 299.609 106.055C299.814 105.966 300.035 105.917 300.26 105.913Z" fill="#30302F"/>
<path d="M300.268 164.473C299.816 164.473 299.383 164.293 299.064 163.974C298.744 163.655 298.565 163.222 298.565 162.771V154.736H301.939V162.771C301.939 163.217 301.764 163.645 301.451 163.963C301.139 164.281 300.714 164.464 300.268 164.473Z" fill="#30302F"/>
<path d="M329.564 135.233C329.564 135.684 329.385 136.117 329.065 136.436C328.746 136.755 328.313 136.935 327.861 136.935H319.822V133.491H327.861C328.088 133.491 328.313 133.536 328.522 133.624C328.732 133.712 328.921 133.841 329.08 134.004C329.238 134.166 329.363 134.358 329.446 134.569C329.529 134.78 329.57 135.006 329.564 135.233Z" fill="#30302F"/>
<path d="M270.963 135.193C270.963 134.741 271.143 134.308 271.462 133.989C271.781 133.67 272.214 133.491 272.666 133.491H280.705V136.902L272.666 136.902C272.442 136.902 272.22 136.858 272.013 136.772C271.806 136.686 271.617 136.56 271.459 136.401C271.301 136.242 271.176 136.054 271.091 135.846C271.006 135.639 270.962 135.417 270.963 135.193Z" fill="#30302F"/>
<path d="M320.976 155.895C320.657 156.214 320.224 156.393 319.772 156.393C319.321 156.393 318.888 156.214 318.568 155.895L312.884 150.213L315.298 147.801L320.982 153.482C321.141 153.641 321.266 153.829 321.352 154.036C321.437 154.243 321.481 154.465 321.481 154.689C321.48 154.914 321.435 155.135 321.349 155.342C321.262 155.549 321.136 155.737 320.976 155.895Z" fill="#30302F"/>
<path d="M279.543 114.485C279.862 114.166 280.295 113.987 280.747 113.987C281.198 113.987 281.631 114.166 281.951 114.485L287.635 120.167L285.221 122.579L279.548 116.909C279.387 116.751 279.259 116.563 279.172 116.355C279.084 116.147 279.039 115.924 279.038 115.698C279.038 115.473 279.082 115.249 279.169 115.041C279.255 114.833 279.382 114.644 279.543 114.485Z" fill="#30302F"/>
<path d="M320.985 114.484C321.304 114.804 321.483 115.237 321.483 115.688C321.483 116.139 321.304 116.572 320.985 116.891L315.3 122.573L312.887 120.16L318.56 114.49C318.718 114.329 318.906 114.201 319.114 114.114C319.322 114.026 319.545 113.981 319.771 113.98C319.997 113.98 320.22 114.024 320.428 114.111C320.637 114.197 320.826 114.324 320.985 114.484Z" fill="#30302F"/>
<path d="M279.544 155.895C279.224 155.576 279.045 155.143 279.045 154.692C279.045 154.241 279.224 153.808 279.544 153.489L285.228 147.807L287.642 150.22L281.958 155.901C281.799 156.06 281.611 156.185 281.403 156.271C281.196 156.356 280.974 156.4 280.749 156.4C280.525 156.399 280.303 156.354 280.096 156.268C279.889 156.181 279.702 156.055 279.544 155.895Z" fill="#30302F"/>
<path d="M328.455 98.408L350.212 79.5369C351.114 78.7534 352.279 78.3386 353.474 78.3753C354.669 78.412 355.806 78.8974 356.659 79.7348C367.222 89.9888 374.682 103.008 378.186 117.303C378.478 118.474 378.314 119.713 377.725 120.767C377.137 121.821 376.169 122.612 375.018 122.978L347.63 131.765C346.987 131.971 346.307 132.037 345.636 131.96C344.966 131.882 344.319 131.663 343.74 131.316C343.16 130.969 342.662 130.503 342.277 129.948C341.892 129.394 341.63 128.764 341.508 128.1C339.759 119.335 335.148 111.397 328.4 105.532C327.898 105.083 327.497 104.531 327.224 103.915C326.952 103.299 326.814 102.631 326.819 101.958C326.824 101.284 326.973 100.619 327.255 100.007C327.537 99.3947 327.946 98.8498 328.455 98.408Z" fill="#292929"/>
<path d="M328.455 98.408L350.212 79.5369C351.114 78.7534 352.279 78.3386 353.474 78.3753C354.669 78.412 355.806 78.8974 356.659 79.7348C367.222 89.9888 374.682 103.008 378.186 117.303C378.478 118.474 378.314 119.713 377.725 120.767C377.137 121.821 376.169 122.612 375.018 122.978L347.63 131.765C346.987 131.971 346.307 132.037 345.636 131.96C344.966 131.882 344.319 131.663 343.74 131.316C343.16 130.969 342.662 130.503 342.277 129.948C341.892 129.394 341.63 128.764 341.508 128.1C339.759 119.335 335.148 111.397 328.4 105.532C327.898 105.083 327.497 104.531 327.224 103.915C326.952 103.299 326.814 102.631 326.819 101.958C326.824 101.284 326.973 100.619 327.255 100.007C327.537 99.3947 327.946 98.8498 328.455 98.408Z" fill="#B7B7B7"/>
<path d="M275.62 98.4003L253.88 79.545C252.977 78.7559 251.809 78.3369 250.611 78.3722C249.412 78.4074 248.271 78.8942 247.417 79.735C236.867 89.9949 229.411 103.009 225.898 117.295C225.603 118.468 225.766 119.708 226.355 120.764C226.944 121.82 227.913 122.612 229.066 122.979L256.43 131.757C257.074 131.966 257.756 132.034 258.429 131.957C259.103 131.88 259.752 131.661 260.333 131.313C260.914 130.965 261.414 130.497 261.8 129.94C262.185 129.383 262.447 128.751 262.568 128.084C264.318 119.33 268.922 111.401 275.66 105.54C276.166 105.092 276.57 104.54 276.846 103.923C277.121 103.306 277.262 102.637 277.258 101.961C277.254 101.285 277.106 100.618 276.824 100.004C276.541 99.39 276.131 98.8432 275.62 98.4003Z" fill="#B7B7B7"/>
<path d="M262.695 128.235C264.486 119.471 269.041 111.512 275.692 105.525C276.194 105.076 276.596 104.525 276.869 103.909C277.142 103.293 277.281 102.626 277.277 101.952C277.272 101.278 277.124 100.613 276.843 100.001C276.561 99.3887 276.153 98.8433 275.644 98.4009L261.99 86.5273C250.59 97.1729 242.622 110.971 239.101 126.161L256.636 131.782C257.267 131.978 257.932 132.04 258.588 131.965C259.244 131.89 259.878 131.678 260.448 131.345C261.018 131.011 261.513 130.562 261.899 130.027C262.286 129.491 262.557 128.881 262.695 128.235Z" fill="#30302F"/>
<path d="M328.455 98.408L350.212 79.5369C351.114 78.7534 352.279 78.3386 353.474 78.3753C354.669 78.412 355.806 78.8974 356.659 79.7348C367.222 89.9888 374.682 103.008 378.186 117.303C378.478 118.474 378.314 119.713 377.725 120.767C377.137 121.821 376.169 122.612 375.018 122.978L347.63 131.765C346.987 131.971 346.307 132.037 345.636 131.96C344.966 131.882 344.319 131.663 343.74 131.316C343.16 130.969 342.662 130.503 342.277 129.948C341.892 129.394 341.63 128.764 341.508 128.1C339.759 119.335 335.148 111.397 328.4 105.532C327.898 105.083 327.497 104.531 327.224 103.915C326.952 103.299 326.814 102.631 326.819 101.958C326.824 101.284 326.973 100.619 327.255 100.007C327.537 99.3947 327.946 98.8498 328.455 98.408Z" fill="#B7B7B7"/>
<path d="M281.069 177.463L274.916 205.596C274.661 206.748 274.844 207.953 275.43 208.977C276.015 210.001 276.961 210.771 278.084 211.137C292.174 215.517 307.214 215.838 321.478 212.063C322.644 211.759 323.652 211.023 324.296 210.004C324.94 208.986 325.173 207.761 324.947 206.577L319.553 178.342C319.427 177.678 319.161 177.048 318.772 176.496C318.383 175.943 317.88 175.479 317.298 175.136C316.715 174.793 316.066 174.578 315.394 174.506C314.722 174.433 314.042 174.505 313.399 174.716C304.885 177.371 295.731 177.134 287.366 174.044C286.73 173.807 286.05 173.709 285.372 173.757C284.695 173.805 284.036 173.997 283.439 174.321C282.843 174.645 282.322 175.094 281.914 175.635C281.505 176.177 281.217 176.801 281.069 177.463Z" fill="#B7B7B7"/>
<path d="M313.534 174.582C304.973 177.2 295.798 177.015 287.35 174.051C286.715 173.826 286.038 173.738 285.366 173.794C284.694 173.849 284.042 174.047 283.452 174.375C282.862 174.702 282.349 175.151 281.947 175.691C281.544 176.232 281.261 176.852 281.117 177.511L277.252 195.155C292.062 200.062 307.999 200.448 323.03 196.263L319.569 178.183C319.438 177.535 319.172 176.922 318.79 176.382C318.407 175.842 317.916 175.389 317.348 175.049C316.78 174.71 316.147 174.494 315.49 174.413C314.834 174.333 314.167 174.39 313.534 174.582Z" fill="#30302F"/>
<path d="M183.913 251.958C188.55 251.958 192.308 248.201 192.308 243.567C192.308 238.933 188.55 235.177 183.913 235.177C179.277 235.177 175.518 238.933 175.518 243.567C175.518 248.201 179.277 251.958 183.913 251.958Z" fill="#F3F4F5"/>
<path d="M209.812 251.958C214.449 251.958 218.207 248.201 218.207 243.567C218.207 238.933 214.449 235.177 209.812 235.177C205.175 235.177 201.417 238.933 201.417 243.567C201.417 248.201 205.175 251.958 209.812 251.958Z" fill="#F3F4F5"/>
<path d="M196.863 423.713C207.273 423.713 215.712 415.278 215.712 404.874C215.712 394.469 207.273 386.034 196.863 386.034C186.452 386.034 178.013 394.469 178.013 404.874C178.013 415.278 186.452 423.713 196.863 423.713Z" fill="#F3F4F5"/>
<path d="M231.252 368.216H162.481C160.408 368.216 158.727 369.896 158.727 371.968C158.727 374.04 160.408 375.72 162.481 375.72H231.252C233.325 375.72 235.006 374.04 235.006 371.968C235.006 369.896 233.325 368.216 231.252 368.216Z" fill="#F3F4F5"/>
<path d="M284.776 351.269H252.802C250.13 351.269 247.963 353.434 247.963 356.105V370.876C247.963 373.547 250.13 375.712 252.802 375.712H284.776C287.449 375.712 289.615 373.547 289.615 370.876V356.105C289.615 353.434 287.449 351.269 284.776 351.269Z" fill="#6C6C6C"/>
<path d="M331.996 351.269H300.022C297.35 351.269 295.183 353.434 295.183 356.105V370.876C295.183 373.547 297.35 375.712 300.022 375.712H331.996C334.668 375.712 336.835 373.547 336.835 370.876V356.105C336.835 353.434 334.668 351.269 331.996 351.269Z" fill="#6C6C6C"/>
<path d="M126.754 351.269H64.0343C61.3617 351.269 59.1951 353.434 59.1951 356.105V370.876C59.1951 373.547 61.3617 375.712 64.0343 375.712H126.754C129.426 375.712 131.593 373.547 131.593 370.876V356.105C131.593 353.434 129.426 351.269 126.754 351.269Z" fill="#6C6C6C"/>
<path d="M56.3992 439.275V451.149C56.3992 454.553 65.1113 457.315 75.8668 457.315C86.6224 457.315 95.3266 454.553 95.3266 451.149V439.275H56.3992Z" fill="#30302F"/>
<path d="M293.948 439.275V451.149C293.948 454.553 302.66 457.315 313.415 457.315C324.171 457.315 332.875 454.553 332.875 451.149V439.275H293.948Z" fill="#30302F"/>
<path d="M63.258 337.717C65.5151 337.717 67.3448 335.888 67.3448 333.632C67.3448 331.377 65.5151 329.548 63.258 329.548C61.001 329.548 59.1713 331.377 59.1713 333.632C59.1713 335.888 61.001 337.717 63.258 337.717Z" fill="#F3F4F5"/>
<path d="M76.1124 337.717C78.3695 337.717 80.1992 335.888 80.1992 333.632C80.1992 331.377 78.3695 329.548 76.1124 329.548C73.8553 329.548 72.0256 331.377 72.0256 333.632C72.0256 335.888 73.8553 337.717 76.1124 337.717Z" fill="#F3F4F5"/>
<path d="M88.9668 337.717C91.2239 337.717 93.0536 335.888 93.0536 333.632C93.0536 331.377 91.2239 329.548 88.9668 329.548C86.7097 329.548 84.88 331.377 84.88 333.632C84.88 335.888 86.7097 337.717 88.9668 337.717Z" fill="#F3F4F5"/>
<path d="M101.829 337.717C104.086 337.717 105.916 335.888 105.916 333.632C105.916 331.377 104.086 329.548 101.829 329.548C99.572 329.548 97.7423 331.377 97.7423 333.632C97.7423 335.888 99.572 337.717 101.829 337.717Z" fill="#F3F4F5"/>
<path d="M114.683 337.717C116.941 337.717 118.77 335.888 118.77 333.632C118.77 331.377 116.941 329.548 114.683 329.548C112.426 329.548 110.597 331.377 110.597 333.632C110.597 335.888 112.426 337.717 114.683 337.717Z" fill="#F3F4F5"/>
<path d="M127.538 337.717C129.795 337.717 131.625 335.888 131.625 333.632C131.625 331.377 129.795 329.548 127.538 329.548C125.281 329.548 123.451 331.377 123.451 333.632C123.451 335.888 125.281 337.717 127.538 337.717Z" fill="#F3F4F5"/>
<path d="M279.541 337.717C281.798 337.717 283.628 335.888 283.628 333.632C283.628 331.377 281.798 329.548 279.541 329.548C277.284 329.548 275.454 331.377 275.454 333.632C275.454 335.888 277.284 337.717 279.541 337.717Z" fill="#F3F4F5"/>
<path d="M292.395 337.717C294.652 337.717 296.482 335.888 296.482 333.632C296.482 331.377 294.652 329.548 292.395 329.548C290.138 329.548 288.308 331.377 288.308 333.632C288.308 335.888 290.138 337.717 292.395 337.717Z" fill="#F3F4F5"/>
<path d="M305.257 337.717C307.515 337.717 309.344 335.888 309.344 333.632C309.344 331.377 307.515 329.548 305.257 329.548C303 329.548 301.171 331.377 301.171 333.632C301.171 335.888 303 337.717 305.257 337.717Z" fill="#F3F4F5"/>
<path d="M38.9828 85.8776H49.3899L43.0538 80.3841C42.1518 79.5973 40.9858 79.1797 39.7891 79.215C38.5923 79.2502 37.453 79.7356 36.5989 80.5741C26.031 90.8248 18.5627 103.841 15.0482 118.134C14.7534 119.307 14.917 120.547 15.5057 121.603C16.0943 122.659 17.0637 123.451 18.2163 123.818L34.1991 128.947V90.6271C34.1991 90.0007 34.323 89.3805 34.5638 88.8022C34.8046 88.2239 35.1575 87.6989 35.6021 87.2575C36.0468 86.816 36.5744 86.4669 37.1546 86.23C37.7348 85.9932 38.3561 85.8735 38.9828 85.8776Z" fill="#F3F4F5"/>
<path d="M51.8451 129.082C53.6389 120.317 58.1969 112.357 64.85 106.372C65.3522 105.922 65.7529 105.371 66.0256 104.755C66.2982 104.138 66.4365 103.471 66.4312 102.797C66.426 102.123 66.2773 101.458 65.9951 100.846C65.713 100.234 65.3037 99.6894 64.7946 99.2476L51.1482 87.374C39.7464 98.0191 31.7752 111.817 28.2511 127.008L45.7942 132.628C46.4246 132.823 47.0887 132.884 47.7443 132.809C48.3998 132.733 49.0323 132.521 49.6015 132.188C50.1707 131.854 50.6642 131.406 51.0505 130.871C51.4368 130.336 51.7074 129.727 51.8451 129.082Z" fill="#30302F"/>
<path d="M378.186 117.303C374.682 103.008 367.222 89.9888 356.659 79.7348C355.806 78.8974 354.669 78.412 353.474 78.3753C352.279 78.3386 351.115 78.7534 350.212 79.5369L342.91 85.8695H354.742C356.003 85.8695 357.211 86.3699 358.103 87.2606C358.994 88.1513 359.494 89.3593 359.494 90.6189V127.949L375.026 122.971C376.173 122.602 377.138 121.812 377.725 120.76C378.312 119.708 378.477 118.472 378.186 117.303Z" fill="#F3F4F5"/>
<path d="M341.421 128.234C339.621 119.469 335.064 111.509 328.416 105.516C327.913 105.067 327.512 104.516 327.238 103.9C326.965 103.284 326.826 102.617 326.831 101.944C326.835 101.27 326.983 100.605 327.265 99.9922C327.546 99.3799 327.955 98.8345 328.463 98.3921L342.118 86.5186C353.519 97.1637 361.491 110.962 365.015 126.153L347.472 131.773C346.842 131.968 346.178 132.029 345.523 131.954C344.868 131.879 344.236 131.668 343.667 131.335C343.098 131.002 342.604 130.555 342.217 130.021C341.831 129.487 341.559 128.879 341.421 128.234Z" fill="#30302F"/>
<path d="M43.2201 324.814H350.505" stroke="#6C6C6C" stroke-width="4" stroke-miterlimit="10" stroke-linecap="round"/>
<path d="M43.2201 342.102H350.505" stroke="#6C6C6C" stroke-width="4" stroke-miterlimit="10" stroke-linecap="round"/>
<path d="M585.297 495.097C650.691 495.097 703.703 474.893 703.703 449.969C703.703 425.046 650.691 404.842 585.297 404.842C519.903 404.842 466.891 425.046 466.891 449.969C466.891 474.893 519.903 495.097 585.297 495.097Z" fill="#30302F"/>
<path d="M703.632 424.86H466.891V451.481H703.632V424.86Z" fill="#30302F"/>
<path d="M585.297 469.989C650.691 469.989 703.703 449.784 703.703 424.861C703.703 399.938 650.691 379.733 585.297 379.733C519.903 379.733 466.891 399.938 466.891 424.861C466.891 449.784 519.903 469.989 585.297 469.989Z" fill="#DF7E26"/>
<path d="M772.521 385.401C768.173 371.722 756.562 359.596 739.478 350.864C683.744 322.368 612.915 376.504 463.636 333.284C426.586 322.558 413.359 310.011 413.351 297.576L413.644 270.797C412.678 283.676 425.525 296.737 463.874 307.85C613.152 351.07 683.982 296.958 739.74 325.431C767.31 339.513 780.98 361.377 772.545 385.401" fill="#B7B7B7"/>
<path d="M674.177 479.82C755.817 454.489 782.239 416.494 772.877 386.105L772.529 386.43C764.292 410.565 734.116 435.848 674.414 454.363" fill="#30302F"/>
<path d="M417.834 284.491C390.755 249.883 495.237 211.207 495.237 211.207L495.008 236.68C495.008 236.68 433.136 259.58 416.955 285.908" fill="#30302F"/>
<path d="M585.265 471.128C658.205 471.128 717.334 448.592 717.334 420.792C717.334 392.992 658.205 370.456 585.265 370.456C512.326 370.456 453.197 392.992 453.197 420.792C453.197 448.592 512.326 471.128 585.265 471.128Z" fill="#B7B7B7"/>
<path d="M717.326 411.879H453.197V420.792H717.326V411.879Z" fill="#B7B7B7"/>
<path d="M585.265 462.215C658.205 462.215 717.334 439.679 717.334 411.879C717.334 384.079 658.205 361.543 585.265 361.543C512.326 361.543 453.197 384.079 453.197 411.879C453.197 439.679 512.326 462.215 585.265 462.215Z" fill="#DF7E26"/>
<path d="M606.444 382.599C592.432 380.14 578.099 380.14 564.087 382.599C563.114 382.617 562.148 382.431 561.252 382.053C560.451 381.738 559.745 381.223 559.2 380.557L554.203 374.113C552.151 371.478 554.844 368.248 559.082 368.248C576.432 365.567 594.091 365.567 611.441 368.248C612.342 368.124 613.259 368.238 614.102 368.58C614.944 368.922 615.682 369.479 616.241 370.195C616.731 370.725 617.01 371.416 617.026 372.138C617.042 372.859 616.794 373.562 616.328 374.113L611.323 380.557C610.709 381.234 609.954 381.769 609.111 382.122C608.268 382.475 607.357 382.638 606.444 382.599Z" fill="#30302F"/>
<path d="M563.509 419.707C548.08 418.591 534.933 414.958 526.981 410.042C526.475 409.72 525.905 409.511 525.311 409.427C524.717 409.344 524.111 409.389 523.536 409.559L487.167 420.57C486.314 420.859 485.564 421.39 485.009 422.099C484.454 422.808 484.118 423.663 484.042 424.56C483.967 425.457 484.154 426.356 484.583 427.148C485.011 427.939 485.662 428.589 486.454 429.016C501.344 436.536 522.728 442.069 547.281 444.404C547.905 444.459 548.533 444.375 549.121 444.157C549.709 443.94 550.241 443.594 550.678 443.146L566.289 427.512C568.99 424.773 567.287 419.977 563.509 419.707Z" fill="#30302F"/>
<path d="M612.178 418.916C627.607 417.8 640.754 414.167 648.706 409.251C649.212 408.929 649.782 408.72 650.376 408.636C650.97 408.553 651.576 408.598 652.151 408.768L688.52 419.779C689.373 420.068 690.123 420.599 690.678 421.308C691.233 422.017 691.569 422.872 691.645 423.769C691.72 424.666 691.533 425.565 691.104 426.357C690.676 427.148 690.025 427.798 689.233 428.225C674.335 435.745 652.991 441.278 628.375 443.613C627.751 443.668 627.122 443.584 626.534 443.366C625.947 443.149 625.415 442.803 624.977 442.355L609.43 426.721C606.682 423.982 608.4 419.186 612.178 418.916Z" fill="#30302F"/>
<path d="M586.398 410.447C598.379 410.447 608.091 405.698 608.091 399.839C608.091 393.981 598.379 389.232 586.398 389.232C574.417 389.232 564.705 393.981 564.705 399.839C564.705 405.698 574.417 410.447 586.398 410.447Z" fill="#30302F"/>
<path d="M586.398 404.842C592.054 404.842 596.639 402.603 596.639 399.84C596.639 397.077 592.054 394.837 586.398 394.837C580.742 394.837 576.157 397.077 576.157 399.84C576.157 402.603 580.742 404.842 586.398 404.842Z" fill="#B7B7B7"/>
<path d="M418.515 28.3938L415.102 31.8371L418.515 28.3938ZM437.737 86.1153C437.737 87.4001 438.248 88.6323 439.157 89.5408C440.066 90.4493 441.299 90.9597 442.584 90.9597C443.87 90.9597 445.103 90.4493 446.012 89.5408C446.921 88.6323 447.432 87.4001 447.432 86.1153H437.737ZM361.269 9.68893C381.449 9.65599 400.819 17.6272 415.125 31.853L421.953 24.9742C405.829 8.94987 384.007 -0.0311491 361.269 8.11775e-05V9.68893ZM415.125 31.853C422.309 38.9495 428.01 47.4026 431.896 56.7207C435.782 66.0388 437.775 76.036 437.761 86.1311H447.455C447.47 74.757 445.223 63.4934 440.845 52.9946C436.467 42.4958 430.045 32.9712 421.953 24.9742L415.125 31.853Z" fill="#DF7F28"/>
<path d="M403.34 45.2542L406.817 41.8821L403.34 45.2542ZM415.086 86.1152C415.086 87.4 415.597 88.6322 416.506 89.5407C417.415 90.4492 418.647 90.9596 419.933 90.9596C421.219 90.9596 422.451 90.4492 423.36 89.5407C424.269 88.6322 424.78 87.4 424.78 86.1152H415.086ZM361.229 22.639C359.943 22.639 358.711 23.1494 357.802 24.0579C356.893 24.9664 356.382 26.1986 356.382 27.4834C356.382 28.7682 356.893 30.0004 357.802 30.9089C358.711 31.8174 359.943 32.3278 361.229 32.3278V22.639ZM361.229 0C359.943 0 358.711 0.510393 357.802 1.4189C356.893 2.32741 356.382 3.5596 356.382 4.84443C356.382 6.12925 356.893 7.36145 357.802 8.26995C358.711 9.17846 359.943 9.68885 361.229 9.68885V0ZM361.229 32.3278C368.428 32.3181 375.555 33.7569 382.186 36.5583C388.816 39.3598 394.815 43.4667 399.824 48.6342L406.778 41.8821C400.87 35.7892 393.797 30.9458 385.979 27.64C378.161 24.3342 369.758 22.6335 361.269 22.639L361.229 32.3278ZM399.824 48.6342C409.602 58.6607 415.066 72.1138 415.046 86.1152H424.741C424.761 69.5925 418.314 53.7172 406.778 41.8821L399.824 48.6342Z" fill="#DF7F28"/>
<path d="M41.3748 210.78L55.0766 271.059V271.13C55.334 272.336 55.8543 273.472 56.6004 274.454C57.3466 275.437 58.3002 276.244 59.3936 276.817C60.4869 277.39 61.6931 277.715 62.9264 277.769C64.1596 277.823 65.3897 277.605 66.5291 277.13H66.6004L108.838 255.243C110.254 254.362 111.861 253.835 113.523 253.708C115.186 253.581 116.855 253.857 118.388 254.513C119.92 255.169 121.272 256.185 122.327 257.476C123.383 258.766 124.111 260.292 124.449 261.924" stroke="#30302F" stroke-width="6" stroke-miterlimit="10"/>
<path d="M124.425 261.892L128.631 283.264L124.425 261.892Z" stroke="#30302F" stroke-width="6" stroke-miterlimit="10"/>
<path d="M128.631 283.248C129 284.794 129.848 286.184 131.054 287.22C132.26 288.256 133.762 288.886 135.347 289.019H135.109L150.775 290.507" stroke="#30302F" stroke-width="6" stroke-miterlimit="10"/>
<path d="M352.35 210.78L338.649 271.059V271.13C338.39 272.331 337.87 273.462 337.127 274.441C336.383 275.42 335.434 276.224 334.345 276.796C333.257 277.368 332.056 277.695 330.828 277.753C329.599 277.81 328.373 277.598 327.236 277.13H327.172L284.926 255.243C283.513 254.355 281.905 253.822 280.24 253.689C278.575 253.557 276.903 253.829 275.367 254.482C273.83 255.135 272.474 256.15 271.415 257.441C270.356 258.731 269.625 260.258 269.284 261.892" stroke="#30302F" stroke-width="6" stroke-miterlimit="10"/>
<path d="M269.284 261.892L265.079 283.264L269.284 261.892Z" stroke="#30302F" stroke-width="6" stroke-miterlimit="10"/>
<path d="M265.094 283.248C264.725 284.794 263.877 286.184 262.671 287.22C261.465 288.256 259.963 288.886 258.378 289.019H258.616L242.95 290.507" stroke="#30302F" stroke-width="6" stroke-miterlimit="10"/>
<path d="M356.651 210.447C356.651 210.447 349.04 215.648 345.935 217.255C342.83 218.862 343.615 203.109 343.615 203.109L356.651 210.447Z" fill="#DF7E26"/>
<path d="M63.654 276.646C67.5427 276.646 70.695 273.496 70.695 269.609C70.695 265.723 67.5427 262.572 63.654 262.572C59.7654 262.572 56.613 265.723 56.613 269.609C56.613 273.496 59.7654 276.646 63.654 276.646Z" fill="#6C6C6C"/>
<path d="M330.071 276.646C333.96 276.646 337.112 273.496 337.112 269.609C337.112 265.723 333.96 262.572 330.071 262.572C326.183 262.572 323.03 265.723 323.03 269.609C323.03 273.496 326.183 276.646 330.071 276.646Z" fill="#6C6C6C"/>
<path d="M134.428 288.758C137.118 288.758 139.299 286.578 139.299 283.89C139.299 281.201 137.118 279.021 134.428 279.021C131.738 279.021 129.557 281.201 129.557 283.89C129.557 286.578 131.738 288.758 134.428 288.758Z" fill="#6C6C6C"/>
<path d="M259.305 288.758C261.995 288.758 264.176 286.578 264.176 283.89C264.176 281.201 261.995 279.021 259.305 279.021C256.615 279.021 254.434 281.201 254.434 283.89C254.434 286.578 256.615 288.758 259.305 288.758Z" fill="#6C6C6C"/>
<path d="M114.43 273.085C119.64 273.085 123.863 268.864 123.863 263.657C123.863 258.45 119.64 254.229 114.43 254.229C109.22 254.229 104.997 258.45 104.997 263.657C104.997 268.864 109.22 273.085 114.43 273.085Z" fill="#6C6C6C"/>
<path d="M279.295 273.085C284.505 273.085 288.728 268.864 288.728 263.657C288.728 258.45 284.505 254.229 279.295 254.229C274.086 254.229 269.862 258.45 269.862 263.657C269.862 268.864 274.086 273.085 279.295 273.085Z" fill="#6C6C6C"/>
<path d="M236.55 277.724H157.183C151.015 277.724 146.015 282.721 146.015 288.885C146.015 295.049 151.015 300.046 157.183 300.046H236.55C242.718 300.046 247.718 295.049 247.718 288.885C247.718 282.721 242.718 277.724 236.55 277.724Z" fill="#6C6C6C"/>
<path d="M37.0741 210.447C37.0741 210.447 44.6853 215.648 47.79 217.255C50.8947 218.862 50.1106 203.109 50.1106 203.109L37.0741 210.447Z" fill="#DF7E26"/>
</g>
<defs>
<clipPath id="clip0_267_328">
<rect width="775" height="517" fill="white"/>
</clipPath>
</defs>
</svg>
