<?xml version="1.0" encoding="utf-8"?>
<!-- Generator: Adobe Illustrator 28.0.0, SVG Export Plug-In . SVG Version: 6.00 Build 0)  -->
<svg version="1.1" id="Layer_1" xmlns="http://www.w3.org/2000/svg" xmlns:xlink="http://www.w3.org/1999/xlink" x="0px" y="0px"
	 viewBox="0 0 851 752" style="enable-background:new 0 0 851 752;" xml:space="preserve">
<style type="text/css">
	.st0{fill:#999999;}
	.st1{fill:#30302F;}
	.st2{fill:#DF7E26;}
	.st3{fill:#6C6C6C;}
	.st4{fill:#C4C4C4;}
	.st5{fill:#393234;}
	.st6{fill:#FFFFFF;}
	.st7{fill:#DF7F28;}
	.st8{fill:#32283D;}
</style>
<rect x="362.32" y="258.46" class="st0" width="27.52" height="51.32"/>
<g>
	<path class="st1" d="M217.59,338.35c5,0,9.06-11.07,9.06-24.74c0-13.66-4.06-24.73-9.06-24.73c-5,0-9.06,11.07-9.06,24.73
		C208.53,327.27,212.59,338.35,217.59,338.35z"/>
</g>
<g>
	<path class="st2" d="M293.76,338.35c10,0,18.11-11.07,18.11-24.74c0-13.66-8.11-24.73-18.11-24.73"/>
</g>
<g>
	<path class="st2" d="M293.14,288.88h-5.61c0-18.3-14.39-33.2-32.08-33.2s-32.08,14.89-32.08,33.2h-5.61
		c0-21.4,16.91-38.81,37.69-38.81S293.14,267.48,293.14,288.88z"/>
</g>
<g>
	<path class="st2" d="M292.5,293.81h-4.32c0-18.66-14.68-33.84-32.72-33.84s-32.72,15.18-32.72,33.84h-4.32
		c0-21.04,16.62-38.16,37.04-38.16S292.5,272.77,292.5,293.81z"/>
</g>
<g>
	<g>
		<path class="st0" d="M293.76,338.35c5,0,9.06-11.07,9.06-24.74c0-13.66-4.05-24.73-9.06-24.73c-5,0-9.06,11.07-9.06,24.73
			C284.7,327.27,288.76,338.35,293.76,338.35z"/>
	</g>
</g>
<g>
	<g>
		<path class="st0" d="M293.76,338.35h-6.46c-0.69,0-1.35-0.27-1.84-0.76c-0.49-0.49-0.76-1.15-0.76-1.84V291.5
			c0-0.69,0.27-1.35,0.76-1.84c0.49-0.49,1.15-0.76,1.84-0.76h6.46V338.35z"/>
	</g>
</g>
<g>
	<path class="st2" d="M265.15,255.16h-19.89v1.5h19.89V255.16z"/>
</g>
<path class="st3" d="M160.15,392.12v118.02c0,1.33-0.73,2.56-1.9,3.2l-62.63,34.21c-2.43,1.33-5.39-0.43-5.39-3.2V377.23
	c0-2.01,1.63-3.64,3.64-3.64h564.41c2.01,0,3.64,1.63,3.64,3.64v167.11c0,2.77-2.96,4.52-5.39,3.2l-62.63-34.21
	c-1.17-0.64-1.9-1.86-1.9-3.2V392.12"/>
<path class="st3" d="M97.71,367.66c0.62-0.31,1.31-0.47,2.01-0.47h553.29c0.7,0,1.38,0.16,2.01,0.47l12.68,6.34
	c0.52,0.26,0.34,1.05-0.25,1.05H85.27c-0.58,0-0.77-0.79-0.25-1.05L97.71,367.66z"/>
<path class="st0" d="M600.2,438.45H151.97c-2.04,0-3.7-1.66-3.7-3.7v-48.19c0-2.04,1.66-3.7,3.7-3.7H600.2c2.04,0,3.7,1.66,3.7,3.7
	v48.19C603.9,436.79,602.24,438.45,600.2,438.45z"/>
<ellipse class="st2" cx="376.08" cy="579.13" rx="220.7" ry="58.41"/>
<path class="st4" d="M97.52,544.4V377.18c0-1.98-1.63-3.59-3.64-3.59h0c-2.01,0-3.64,1.61-3.64,3.59V544.4
	c0,1.98,1.63,3.59,3.64,3.59h0C95.89,547.99,97.52,546.38,97.52,544.4z"/>
<path class="st4" d="M661.93,544.4V377.18c0-1.98-1.63-3.59-3.64-3.59h0c-2.01,0-3.64,1.61-3.64,3.59V544.4
	c0,1.98,1.63,3.59,3.64,3.59h0C660.3,547.99,661.93,546.38,661.93,544.4z"/>
<path class="st4" d="M665.59,392.12H86.58c-2.01,0-3.64-1.63-3.64-3.64v-11.25c0-2.01,1.63-3.64,3.64-3.64h579.01
	c2.01,0,3.64,1.63,3.64,3.64v11.25C669.23,390.49,667.6,392.12,665.59,392.12z"/>
<g>
	<path class="st5" d="M180.59,371h-64.89c-4.62,0-8.36-3.74-8.36-8.36V263.3c0-4.62,3.74-8.36,8.36-8.36h64.89
		c4.62,0,8.36,3.74,8.36,8.36v99.34C188.95,367.25,185.21,371,180.59,371z"/>
	<path class="st3" d="M177.62,363.35h-58.97c-1.71,0-3.09-1.38-3.09-3.09v0c0-1.71,1.38-3.09,3.09-3.09h58.97
		c1.71,0,3.09,1.38,3.09,3.09v0C180.71,361.97,179.33,363.35,177.62,363.35z"/>
	<circle class="st3" cx="148.14" cy="322.83" r="28.17"/>
	<circle class="st3" cx="148.14" cy="274.8" r="13.17"/>
	<circle class="st5" cx="148.14" cy="322.83" r="20.64"/>
	<circle class="st5" cx="148.14" cy="274.8" r="5.29"/>
	<circle class="st4" cx="148.14" cy="322.83" r="13.17"/>
</g>
<g>
	<path class="st5" d="M636.35,371.12h-64.89c-4.62,0-8.36-3.74-8.36-8.36v-99.34c0-4.62,3.74-8.36,8.36-8.36h64.89
		c4.62,0,8.36,3.74,8.36,8.36v99.34C644.71,367.38,640.96,371.12,636.35,371.12z"/>
	<path class="st3" d="M633.38,363.48h-58.97c-1.71,0-3.09-1.38-3.09-3.09l0,0c0-1.71,1.38-3.09,3.09-3.09h58.97
		c1.71,0,3.09,1.38,3.09,3.09l0,0C636.47,362.1,635.09,363.48,633.38,363.48z"/>
	<circle class="st3" cx="603.9" cy="322.95" r="28.17"/>
	<circle class="st3" cx="603.9" cy="274.92" r="13.17"/>
	<circle class="st5" cx="603.9" cy="322.95" r="20.64"/>
	<circle class="st5" cx="603.9" cy="274.92" r="5.29"/>
	<circle class="st4" cx="603.9" cy="322.95" r="13.17"/>
</g>
<path class="st5" d="M549.77,368.88H202.4c-3.58,0-6.49-2.91-6.49-6.49v-57.56c0-3.58,2.91-6.49,6.49-6.49h347.37
	c3.58,0,6.49,2.91,6.49,6.49v57.56C556.26,365.97,553.35,368.88,549.77,368.88z"/>
<path class="st4" d="M478.15,269.51H274.01c-7.68,0-13.9-6.22-13.9-13.9v-96.69c0-7.68,6.22-13.9,13.9-13.9h204.14
	c7.68,0,13.9,6.22,13.9,13.9v96.69C492.05,263.28,485.83,269.51,478.15,269.51z"/>
<path class="st6" d="M476.57,258.81H275.59c-4.16,0-7.52-3.37-7.52-7.52v-88.04c0-4.16,3.37-7.52,7.52-7.52h200.98
	c4.16,0,7.52,3.37,7.52,7.52v88.04C484.09,255.44,480.73,258.81,476.57,258.81z"/>
<g>
	<circle class="st0" cx="279.57" cy="327.77" r="4.38"/>
	<circle class="st0" cx="279.57" cy="340.28" r="4.38"/>
	<circle class="st0" cx="279.57" cy="352.79" r="4.38"/>
</g>
<g>
	<circle class="st0" cx="293.64" cy="327.77" r="4.38"/>
	<circle class="st0" cx="293.64" cy="340.28" r="4.38"/>
	<circle class="st0" cx="293.64" cy="352.79" r="4.38"/>
</g>
<g>
	<circle class="st0" cx="307.72" cy="327.77" r="4.38"/>
	<circle class="st0" cx="307.72" cy="340.28" r="4.38"/>
	<circle class="st0" cx="307.72" cy="352.79" r="4.38"/>
</g>
<g>
	<circle class="st0" cx="321.8" cy="327.77" r="4.38"/>
	<circle class="st0" cx="321.8" cy="340.28" r="4.38"/>
	<circle class="st0" cx="321.8" cy="352.79" r="4.38"/>
</g>
<path class="st6" d="M211.62,357.18h47.77c2.42,0,4.38-1.96,4.38-4.38v0c0-2.42-1.96-4.38-4.38-4.38h-47.77
	c-2.42,0-4.38,1.96-4.38,4.38v0C207.23,355.21,209.19,357.18,211.62,357.18z"/>
<path class="st3" d="M542.84,359.95h-91.29c-2.29,0-4.15-1.86-4.15-4.15v-44.4c0-2.29,1.86-4.15,4.15-4.15h91.29
	c2.29,0,4.15,1.86,4.15,4.15v44.4C546.99,358.09,545.13,359.95,542.84,359.95z"/>
<ellipse class="st5" cx="376.08" cy="579.13" rx="196.65" ry="45.68"/>
<ellipse class="st0" cx="376.08" cy="579.13" rx="161.79" ry="29.58"/>
<path class="st0" d="M374.38,359.39L374.38,359.39c-1.94,0-3.51-1.57-3.51-3.51v-40.37c0-1.94,1.57-3.51,3.51-3.51l0,0
	c1.94,0,3.51,1.57,3.51,3.51v40.37C377.89,357.82,376.32,359.39,374.38,359.39z"/>
<path class="st0" d="M388.59,359.39L388.59,359.39c-1.94,0-3.51-1.57-3.51-3.51v-40.37c0-1.94,1.57-3.51,3.51-3.51l0,0
	c1.94,0,3.51,1.57,3.51,3.51v40.37C392.1,357.82,390.53,359.39,388.59,359.39z"/>
<path class="st0" d="M402.79,359.39L402.79,359.39c-1.94,0-3.51-1.57-3.51-3.51v-40.37c0-1.94,1.57-3.51,3.51-3.51l0,0
	c1.94,0,3.51,1.57,3.51,3.51v40.37C406.3,357.82,404.73,359.39,402.79,359.39z"/>
<path class="st0" d="M417,359.39L417,359.39c-1.94,0-3.51-1.57-3.51-3.51v-40.37c0-1.94,1.57-3.51,3.51-3.51l0,0
	c1.94,0,3.51,1.57,3.51,3.51v40.37C420.51,357.82,418.94,359.39,417,359.39z"/>
<circle class="st5" cx="374.38" cy="319.07" r="3.51"/>
<circle class="st5" cx="388.59" cy="334.23" r="3.51"/>
<circle class="st5" cx="402.79" cy="326.18" r="3.51"/>
<circle class="st5" cx="417" cy="350.05" r="3.51"/>
<g>
	<g>
		<path class="st7" d="M312.9,236.12c-0.64,0-1.28-0.25-1.76-0.76c-0.92-0.97-0.88-2.51,0.09-3.43c3.37-3.2,6-6.98,7.84-11.25
			c1.83-4.27,2.76-8.78,2.76-13.43c0-4.64-0.93-9.16-2.76-13.43c-1.83-4.27-4.47-8.05-7.84-11.25c-0.97-0.92-1.01-2.46-0.09-3.43
			c0.92-0.97,2.46-1.01,3.43-0.09c3.85,3.65,6.86,7.98,8.95,12.85c2.09,4.88,3.15,10.04,3.15,15.34c0,5.31-1.06,10.47-3.15,15.34
			c-2.09,4.87-5.11,9.2-8.95,12.85C314.1,235.9,313.5,236.12,312.9,236.12z"/>
	</g>
	<g>
		<path class="st7" d="M330.02,227.44c-0.64,0-1.28-0.25-1.76-0.76c-0.92-0.97-0.88-2.51,0.09-3.43c2.19-2.07,3.9-4.53,5.09-7.3
			c1.19-2.77,1.79-5.7,1.79-8.71c0-3.01-0.6-5.95-1.79-8.71c-1.19-2.77-2.9-5.22-5.09-7.29c-0.97-0.92-1.01-2.46-0.09-3.43
			c0.92-0.97,2.46-1.01,3.43-0.09c2.67,2.53,4.76,5.52,6.21,8.9c1.45,3.38,2.19,6.95,2.19,10.63c0,3.68-0.74,7.25-2.19,10.63
			c-1.45,3.38-3.54,6.37-6.21,8.9C331.22,227.22,330.62,227.44,330.02,227.44z"/>
	</g>
	<g>
		<path class="st7" d="M303.56,227.44c-0.64,0-1.28-0.25-1.76-0.76c-0.92-0.97-0.88-2.51,0.09-3.43c2.19-2.07,3.9-4.53,5.09-7.3
			c1.19-2.77,1.79-5.7,1.79-8.71s-0.6-5.94-1.79-8.71c-1.19-2.77-2.9-5.22-5.09-7.3c-0.97-0.92-1.01-2.46-0.09-3.43
			c0.92-0.97,2.46-1.01,3.43-0.09c2.67,2.53,4.75,5.52,6.21,8.9c1.45,3.38,2.19,6.95,2.19,10.63c0,3.68-0.74,7.25-2.19,10.63
			c-1.45,3.38-3.54,6.37-6.21,8.9C304.76,227.22,304.16,227.44,303.56,227.44z"/>
	</g>
	<g>
		<path class="st7" d="M293.81,218.56c-0.64,0-1.28-0.25-1.76-0.76c-0.92-0.97-0.88-2.51,0.09-3.43c0.97-0.92,1.73-2.02,2.26-3.25
			c0.53-1.23,0.8-2.54,0.8-3.88c0-1.34-0.27-2.65-0.8-3.88c-0.53-1.23-1.29-2.32-2.26-3.25c-0.97-0.92-1.01-2.46-0.09-3.43
			c0.92-0.97,2.46-1.01,3.43-0.09c1.45,1.38,2.59,3.01,3.38,4.85c0.79,1.84,1.19,3.79,1.19,5.79c0,2-0.4,3.95-1.19,5.79
			c-0.79,1.84-1.93,3.47-3.38,4.85C295.01,218.34,294.41,218.56,293.81,218.56z"/>
	</g>
	<g>
		<path class="st7" d="M366.48,236.12c-0.64,0-1.28-0.25-1.76-0.76c-0.92-0.97-0.88-2.51,0.09-3.43c3.37-3.2,6.01-6.98,7.84-11.25
			c1.83-4.27,2.76-8.79,2.76-13.43s-0.93-9.16-2.76-13.43c-1.83-4.27-4.47-8.05-7.84-11.25c-0.97-0.92-1.01-2.46-0.09-3.43
			c0.92-0.97,2.46-1.01,3.43-0.09c3.85,3.65,6.86,7.98,8.96,12.85c2.09,4.88,3.16,10.04,3.16,15.34s-1.06,10.47-3.16,15.34
			c-2.09,4.88-5.11,9.2-8.96,12.85C367.68,235.9,367.08,236.12,366.48,236.12z"/>
	</g>
	<g>
		<path class="st7" d="M383.6,227.44c-0.64,0-1.28-0.25-1.76-0.76c-0.92-0.97-0.88-2.51,0.09-3.43c2.19-2.07,3.9-4.53,5.09-7.3
			c1.19-2.77,1.79-5.7,1.79-8.71c0-3.01-0.6-5.94-1.79-8.71c-1.19-2.77-2.9-5.22-5.09-7.3c-0.97-0.92-1.01-2.46-0.09-3.43
			c0.92-0.97,2.46-1.01,3.43-0.09c2.67,2.53,4.75,5.52,6.21,8.9c1.45,3.38,2.19,6.95,2.19,10.63c0,3.67-0.74,7.25-2.19,10.63
			c-1.45,3.38-3.54,6.37-6.21,8.9C384.8,227.22,384.2,227.44,383.6,227.44z"/>
	</g>
	<g>
		<path class="st7" d="M357.13,227.44c-0.64,0-1.28-0.25-1.76-0.76c-0.92-0.97-0.88-2.51,0.09-3.43c2.19-2.07,3.9-4.53,5.09-7.3
			c1.19-2.77,1.79-5.7,1.79-8.71c0-3.01-0.6-5.94-1.79-8.71c-1.19-2.77-2.9-5.22-5.09-7.29c-0.97-0.92-1.01-2.46-0.09-3.43
			c0.92-0.97,2.46-1.01,3.43-0.09c2.67,2.53,4.76,5.52,6.21,8.9c1.45,3.38,2.19,6.95,2.19,10.63c0,3.68-0.74,7.25-2.19,10.63
			c-1.45,3.38-3.54,6.37-6.21,8.9C358.33,227.22,357.73,227.44,357.13,227.44z"/>
	</g>
	<g>
		<path class="st7" d="M347.39,218.56c-0.64,0-1.28-0.25-1.76-0.76c-0.92-0.97-0.88-2.51,0.09-3.43c0.97-0.92,1.73-2.01,2.26-3.25
			c0.53-1.23,0.8-2.54,0.8-3.88c0-1.34-0.27-2.65-0.8-3.88c-0.53-1.23-1.29-2.32-2.26-3.25c-0.97-0.92-1.01-2.46-0.09-3.43
			c0.92-0.97,2.46-1.01,3.43-0.09c1.45,1.38,2.59,3.01,3.38,4.85c0.79,1.84,1.19,3.79,1.19,5.79c0,2-0.4,3.95-1.19,5.79
			c-0.79,1.84-1.93,3.47-3.38,4.85C348.59,218.34,347.99,218.56,347.39,218.56z"/>
	</g>
	<g>
		<path class="st7" d="M420.05,236.12c-0.64,0-1.28-0.25-1.76-0.76c-0.92-0.97-0.88-2.51,0.09-3.43c3.37-3.2,6-6.98,7.84-11.25
			c1.83-4.27,2.76-8.78,2.76-13.43c0-4.64-0.93-9.16-2.76-13.43c-1.83-4.27-4.47-8.05-7.84-11.25c-0.97-0.92-1.01-2.46-0.09-3.43
			c0.92-0.97,2.46-1.01,3.43-0.09c3.85,3.65,6.86,7.98,8.95,12.85c2.09,4.88,3.16,10.04,3.16,15.34c0,5.3-1.06,10.47-3.16,15.34
			c-2.09,4.87-5.11,9.2-8.95,12.85C421.25,235.9,420.65,236.12,420.05,236.12z"/>
	</g>
	<g>
		<path class="st7" d="M437.18,227.44c-0.64,0-1.28-0.25-1.76-0.76c-0.92-0.97-0.88-2.51,0.09-3.43c2.19-2.07,3.9-4.53,5.09-7.3
			c1.19-2.77,1.79-5.7,1.79-8.71s-0.6-5.94-1.79-8.71c-1.19-2.77-2.9-5.22-5.09-7.3c-0.97-0.92-1.01-2.46-0.09-3.43
			c0.92-0.97,2.46-1.01,3.43-0.09c2.67,2.53,4.75,5.52,6.21,8.9c1.45,3.38,2.19,6.95,2.19,10.63c0,3.68-0.74,7.25-2.19,10.63
			c-1.45,3.38-3.54,6.37-6.21,8.9C438.37,227.22,437.77,227.44,437.18,227.44z"/>
	</g>
	<g>
		<path class="st7" d="M410.71,227.44c-0.64,0-1.28-0.25-1.76-0.76c-0.92-0.97-0.88-2.51,0.09-3.43c2.19-2.07,3.9-4.53,5.09-7.3
			c1.19-2.77,1.79-5.7,1.79-8.71c0-3.01-0.6-5.94-1.79-8.71c-1.19-2.77-2.9-5.22-5.09-7.3c-0.97-0.92-1.01-2.46-0.09-3.43
			c0.92-0.97,2.46-1.01,3.43-0.09c2.67,2.53,4.75,5.52,6.21,8.9c1.45,3.38,2.19,6.95,2.19,10.63c0,3.67-0.74,7.25-2.19,10.63
			c-1.45,3.38-3.54,6.37-6.21,8.9C411.91,227.22,411.31,227.44,410.71,227.44z"/>
	</g>
	<g>
		<path class="st7" d="M400.97,218.56c-0.64,0-1.28-0.25-1.76-0.76c-0.92-0.97-0.88-2.51,0.09-3.43c0.97-0.92,1.73-2.01,2.26-3.25
			c0.53-1.23,0.8-2.54,0.8-3.88c0-1.34-0.27-2.65-0.8-3.88c-0.53-1.23-1.29-2.32-2.26-3.25c-0.97-0.92-1.01-2.46-0.09-3.43
			c0.92-0.97,2.46-1.01,3.43-0.09c1.45,1.38,2.59,3.01,3.38,4.85c0.79,1.84,1.19,3.79,1.19,5.79c0,2-0.4,3.95-1.19,5.79
			c-0.79,1.84-1.93,3.47-3.38,4.85C402.17,218.34,401.57,218.56,400.97,218.56z"/>
	</g>
	<g>
		<path class="st7" d="M454.54,217.96c-0.64,0-1.28-0.25-1.76-0.76c-0.92-0.97-0.88-2.51,0.09-3.43c0.97-0.92,1.73-2.02,2.26-3.25
			c0.53-1.23,0.8-2.54,0.8-3.88c0-1.34-0.27-2.65-0.8-3.88c-0.53-1.23-1.29-2.33-2.26-3.25c-0.97-0.92-1.01-2.46-0.09-3.43
			c0.92-0.97,2.46-1.01,3.43-0.09c1.45,1.38,2.59,3.01,3.38,4.85c0.79,1.84,1.19,3.79,1.19,5.79c0,2-0.4,3.95-1.19,5.79
			c-0.79,1.84-1.93,3.47-3.38,4.85C455.74,217.74,455.14,217.96,454.54,217.96z"/>
	</g>
</g>
<g>
	<path class="st7" d="M645.15,218.55l-1.78,1.79L645.15,218.55z M655.15,248.61c0,0.67,0.27,1.31,0.74,1.78
		c0.47,0.47,1.11,0.74,1.78,0.74c0.67,0,1.31-0.27,1.78-0.74c0.47-0.47,0.74-1.11,0.74-1.78H655.15z M615.36,208.8
		c10.5-0.02,20.58,4.14,28.03,11.54l3.55-3.58c-8.39-8.34-19.74-13.01-31.57-13L615.36,208.8z M643.39,220.35
		c3.74,3.7,6.71,8.1,8.73,12.95c2.02,4.85,3.06,10.06,3.05,15.32h5.05c0.01-5.92-1.16-11.79-3.44-17.26
		c-2.28-5.47-5.62-10.43-9.83-14.59L643.39,220.35z"/>
	<path class="st7" d="M637.25,227.33l1.81-1.76L637.25,227.33z M643.37,248.61c0,0.67,0.27,1.31,0.74,1.78
		c0.47,0.47,1.11,0.74,1.78,0.74c0.67,0,1.31-0.27,1.78-0.74c0.47-0.47,0.74-1.11,0.74-1.78H643.37z M615.36,215.55
		c-0.34-0.01-0.68,0.04-1,0.16c-0.32,0.12-0.61,0.3-0.85,0.54c-0.25,0.24-0.44,0.52-0.57,0.83c-0.13,0.31-0.2,0.65-0.2,0.99
		c0,0.34,0.07,0.68,0.2,0.99c0.13,0.31,0.33,0.6,0.57,0.83c0.24,0.24,0.54,0.42,0.85,0.54c0.32,0.12,0.66,0.18,1,0.16V215.55z
		 M615.36,203.76c-0.67,0-1.31,0.27-1.78,0.74c-0.47,0.47-0.74,1.11-0.74,1.78c0,0.67,0.27,1.31,0.74,1.78
		c0.47,0.47,1.11,0.74,1.78,0.74V203.76z M615.36,220.59c3.75,0,7.46,0.74,10.91,2.2c3.45,1.46,6.57,3.6,9.18,6.29l3.61-3.52
		c-3.08-3.17-6.76-5.7-10.84-7.42c-4.07-1.72-8.45-2.61-12.87-2.6V220.59z M635.45,229.08c5.09,5.22,7.93,12.23,7.92,19.52h5.05
		c0.01-8.61-3.35-16.87-9.35-23.04L635.45,229.08z"/>
	<path class="st7" d="M636.02,248.61c0-2.71-0.53-5.4-1.57-7.91c-1.04-2.51-2.56-4.79-4.48-6.71c-1.92-1.92-4.2-3.44-6.7-4.48
		c-2.51-1.04-5.19-1.57-7.91-1.57v20.67H636.02z"/>
</g>
<g>
	<path class="st7" d="M97.54,214.87c4.15,0,8.26,0.81,12.15,2.42c5.83,2.41,10.76,6.46,14.26,11.71c3.5,5.24,5.36,11.35,5.36,17.66
		c0,1.43-1.16,2.59-2.59,2.59s-2.59-1.16-2.59-2.59c0-5.28-1.55-10.39-4.48-14.78c-2.93-4.39-7.06-7.78-11.94-9.8
		c-4.88-2.02-10.2-2.54-15.38-1.51c-5.18,1.03-9.89,3.55-13.63,7.28c-3.73,3.73-6.25,8.45-7.28,13.63
		c-1.03,5.18-0.51,10.5,1.51,15.38c2.02,4.88,5.41,9.01,9.8,11.94c4.39,2.93,9.5,4.49,14.78,4.49c1.43,0,2.59,1.16,2.59,2.59
		c0,1.43-1.16,2.59-2.59,2.59c-6.31,0-12.41-1.85-17.66-5.36c-5.24-3.5-9.29-8.44-11.71-14.26c-2.41-5.83-3.04-12.18-1.81-18.36
		c1.23-6.19,4.24-11.81,8.7-16.27c4.46-4.46,10.09-7.47,16.27-8.7C93.39,215.08,95.47,214.87,97.54,214.87z"/>
</g>
<g>
	<path class="st7" d="M97.55,203.76c5.59,0,11.15,1.1,16.39,3.27c7.86,3.26,14.52,8.72,19.25,15.79c4.73,7.08,7.23,15.31,7.23,23.82
		c0,1.43-1.16,2.59-2.59,2.59s-2.59-1.16-2.59-2.59c0-7.48-2.2-14.73-6.36-20.95c-4.16-6.22-10.01-11.02-16.92-13.89
		c-6.91-2.86-14.45-3.61-21.79-2.15c-7.34,1.46-14.02,5.03-19.31,10.32c-5.29,5.29-8.86,11.97-10.32,19.31
		c-1.46,7.34-0.72,14.87,2.15,21.79c2.86,6.91,7.67,12.77,13.89,16.92c6.22,4.16,13.47,6.35,20.95,6.35c1.43,0,2.59,1.16,2.59,2.59
		c0,1.43-1.16,2.59-2.59,2.59c-8.51,0-16.75-2.5-23.82-7.23c-7.08-4.73-12.54-11.38-15.79-19.25c-3.26-7.86-4.1-16.43-2.44-24.78
		c1.66-8.35,5.72-15.94,11.74-21.96c6.02-6.02,13.61-10.08,21.96-11.74C91.94,204.04,94.75,203.76,97.55,203.76z"/>
</g>
<g>
	<g>
		<g>
			<g>
				<rect x="700.15" y="514.95" class="st4" width="12.72" height="41.46"/>
			</g>
		</g>
		<path class="st5" d="M767.5,513.41H645.52c-5.34,0-9.71-4.37-9.71-9.71v-0.18c0-5.34,4.37-9.71,9.71-9.71H767.5
			c5.34,0,9.71,4.37,9.71,9.71v0.18C777.21,509.04,772.84,513.41,767.5,513.41z"/>
		<path class="st5" d="M716.8,520.93h-20.59c-3.76,0-6.84-3.08-6.84-6.84v-1.36c0-3.76,3.08-6.84,6.84-6.84h20.59
			c3.76,0,6.84,3.08,6.84,6.84v1.36C723.65,517.85,720.57,520.93,716.8,520.93z"/>
		<g>
			<path class="st5" d="M713.89,606.38h-14.76c-0.7,0-1.26-0.57-1.26-1.26v-55.38c0-0.7,0.57-1.26,1.26-1.26h14.76
				c0.7,0,1.26,0.57,1.26,1.26v55.38C715.15,605.81,714.59,606.38,713.89,606.38z"/>
			<path class="st5" d="M715.83,607.5h-18.64c-0.59,0-1.07-0.48-1.07-1.07v-29.48c0-0.59,0.48-1.07,1.07-1.07h18.64
				c0.59,0,1.07,0.48,1.07,1.07v29.48C716.9,607.02,716.42,607.5,715.83,607.5z"/>
		</g>
		<g>
			<g>
				<ellipse transform="matrix(0.7071 -0.7071 0.7071 0.7071 -256.4321 639.171)" cx="643.33" cy="629.13" rx="6.81" ry="6.81"/>
				<circle class="st8" cx="643.33" cy="629.13" r="2.51"/>
			</g>
			<g>
				<ellipse transform="matrix(0.7071 -0.7071 0.7071 0.7071 -244.9683 666.8469)" cx="682.47" cy="629.13" rx="6.81" ry="6.81"/>
				<circle class="st8" cx="682.47" cy="629.13" r="2.51"/>
			</g>
			<g>
				<g>
					<path class="st5" d="M647.32,625.26h-7.98v-8.25c0-3.36,2.4-6.23,5.7-6.83l60.79-10.53l1.36,7.86l-59.87,10.37V625.26z"/>
				</g>
			</g>
			<g>
				<g>
					<path class="st5" d="M686.46,625.26h-7.98v-8.25c0-2.77,1.78-5.84,3.97-6.84l22.41-10.22l3.31,7.26l-21.71,9.9
						c0,0,0,0.01,0,0.01V625.26z"/>
				</g>
			</g>
			<g>
				<g>
					<path class="st5" d="M773.68,625.26h-7.98v-7.38l-59.87-10.37l1.36-7.86l60.76,10.53c3.33,0.61,5.73,3.48,5.73,6.83V625.26z"/>
				</g>
			</g>
			<g>
				<g>
					<path class="st5" d="M734.54,625.26h-7.98v-8.15c0,0,0-0.01,0-0.01l-21.71-9.9l3.31-7.26l22.41,10.22
						c2.19,1,3.97,4.07,3.97,6.84V625.26z"/>
				</g>
			</g>
			<g>
				<g>
					<g>
						
							<ellipse transform="matrix(0.7071 -0.7071 0.7071 0.7071 -256.5384 639.214)" class="st5" cx="643.33" cy="629.28" rx="7.08" ry="7.08"/>
						<g>
							<path class="st3" d="M645.93,629.28c0-1.44-1.17-2.6-2.6-2.6s-2.6,1.17-2.6,2.6s1.17,2.6,2.6,2.6
								S645.93,630.71,645.93,629.28z"/>
						</g>
					</g>
					<path class="st5" d="M651.54,628.41h-16.43c-0.4,0-0.73-0.33-0.7-0.73c0.37-4.6,4.22-8.22,8.92-8.22
						c4.68,0,8.51,3.59,8.91,8.16C652.28,628.04,651.96,628.41,651.54,628.41z"/>
				</g>
			</g>
			<g>
				<g>
					<g>
						
							<ellipse transform="matrix(0.9403 -0.3404 0.3404 0.9403 -173.4585 269.917)" class="st5" cx="682.47" cy="629.28" rx="7.08" ry="7.08"/>
						<g>
							<path class="st3" d="M685.08,629.28c0-1.44-1.17-2.6-2.6-2.6s-2.6,1.17-2.6,2.6s1.17,2.6,2.6,2.6
								S685.08,630.71,685.08,629.28z"/>
						</g>
					</g>
					<path class="st5" d="M690.69,628.41h-16.43c-0.4,0-0.73-0.33-0.7-0.73c0.37-4.6,4.22-8.22,8.92-8.22
						c4.68,0,8.51,3.59,8.91,8.16C691.42,628.04,691.11,628.41,690.69,628.41z"/>
				</g>
			</g>
			<g>
				<ellipse transform="matrix(0.7071 -0.7071 0.7071 0.7071 -230.919 700.7651)" cx="730.44" cy="629.13" rx="6.81" ry="6.81"/>
				<circle class="st8" cx="730.44" cy="629.13" r="2.51"/>
			</g>
			<g>
				<ellipse transform="matrix(0.9736 -0.2283 0.2283 0.9736 -123.2871 192.2717)" cx="769.58" cy="629.13" rx="6.81" ry="6.81"/>
				<circle class="st8" cx="769.58" cy="629.13" r="2.51"/>
			</g>
			<g>
				<g>
					<g>
						
							<ellipse transform="matrix(0.9753 -0.221 0.221 0.9753 -121.0132 177.0257)" class="st5" cx="730.56" cy="629.28" rx="7.08" ry="7.08"/>
						<g>
							<path class="st3" d="M733.16,629.28c0-1.44-1.17-2.6-2.6-2.6c-1.44,0-2.6,1.17-2.6,2.6s1.17,2.6,2.6,2.6
								C731.99,631.88,733.16,630.71,733.16,629.28z"/>
						</g>
					</g>
					<path class="st5" d="M738.77,628.41h-16.43c-0.4,0-0.73-0.33-0.7-0.73c0.37-4.6,4.22-8.22,8.92-8.22
						c4.68,0,8.51,3.59,8.91,8.16C739.5,628.04,739.19,628.41,738.77,628.41z"/>
				</g>
			</g>
			<g>
				<g>
					<g>
						
							<ellipse transform="matrix(0.7608 -0.649 0.649 0.7608 -224.2798 650.0848)" class="st5" cx="769.7" cy="629.28" rx="7.08" ry="7.08"/>
						<g>
							<path class="st3" d="M772.3,629.28c0-1.44-1.17-2.6-2.6-2.6c-1.44,0-2.6,1.17-2.6,2.6s1.17,2.6,2.6,2.6
								C771.13,631.88,772.3,630.71,772.3,629.28z"/>
						</g>
					</g>
					<path class="st5" d="M777.91,628.41h-16.43c-0.4,0-0.73-0.33-0.7-0.73c0.37-4.6,4.22-8.22,8.92-8.22
						c4.68,0,8.51,3.59,8.91,8.16C778.64,628.04,778.33,628.41,777.91,628.41z"/>
				</g>
			</g>
		</g>
	</g>
	<g>
		<path class="st5" d="M796.7,332.36l-13.34,69.48l-0.23,12.25l-0.15,7.94l-1.14,59.4l-0.14,7.48h-78.87
			c-0.62,2.27-1.34,4.57-2.21,6.91l-0.28-0.11l-0.97-0.35l-13.72-5.06c1.12-3.03,1.98-5.96,2.61-8.87c0.2-0.91,0.38-1.83,0.55-2.73
			c0.08-0.45,0.16-0.91,0.22-1.36c0.04-0.19,0.06-0.37,0.1-0.56c0.01-0.03,0.01-0.05,0.01-0.08c1.36-9.15,0.9-18.38,0.35-29.72
			c-0.01-0.21-0.03-0.43-0.04-0.64c-0.31-6.53-0.66-13.74-0.66-21.93c0-1.4,0.01-2.82,0.03-4.27c0.02-1.34,0.04-2.7,0.09-4.1
			c0.01-0.64,0.03-1.29,0.05-1.94c0.67-19.25,3.5-43.48,11.92-75.58l0.01,0.01c0.82-3.53,3.98-6.16,7.75-6.16
			c0.1,0,0.19,0.02,0.28,0.02v-0.01H796.7z"/>
		<path class="st5" d="M781.84,481.42h-93.57c0.2-0.91,0.38-1.83,0.55-2.73c0.08-0.45,0.16-0.91,0.22-1.36
			c0.04-0.19,0.06-0.37,0.1-0.56c0.01-0.03,0.01-0.05,0.01-0.08c1.36-9.15,0.9-18.38,0.35-29.72c-0.01-0.21-0.03-0.43-0.04-0.64
			c-0.31-6.53-0.66-13.74-0.66-21.93c0-1.4,0.01-2.82,0.03-4.27c0.02-1.34,0.04-2.7,0.09-4.1c21.15-9.69,69.88-11.65,90.64-0.18
			c3.42,1.89,2.02,0.12,3.44,6.18C787.68,442.1,781.84,481.42,781.84,481.42z"/>
		<path class="st5" d="M730.69,481.42h-96.2c-5.85,0-10.63,4.79-10.63,10.63v1.99c0,5.85,4.79,10.63,10.63,10.63h96.2
			c2.61,0,5.01-0.96,6.86-2.53c1.99-1.68,3.36-4.09,3.7-6.8c0.05-0.43,0.08-0.86,0.08-1.3v-1.99
			C741.32,486.21,736.54,481.42,730.69,481.42z"/>
		<path class="st3" d="M803.53,342.55c0.21-0.71,0.32-1.45,0.32-2.23c0-4.4-3.57-7.97-7.97-7.97c-3.78,0-6.93,2.63-7.75,6.16
			l-0.02,0c-14.07,53.63-12.52,85.32-11.39,108.47c0.56,11.34,1.02,20.57-0.35,29.72c0,0.03,0,0.05-0.01,0.08
			c-0.04,0.19-0.06,0.37-0.1,0.56c-0.51,2.34-2.61,4.09-5.1,4.09h-49.45c-5.85,0-10.63,4.79-10.63,10.63v1.99
			c0,5.85,4.79,10.63,10.63,10.63h54.33c0.15,0,0.3-0.01,0.45-0.02l0.01,0.01c5.42,0,10.09-3.48,12.5-8.86
			c5.61-12.55,4.5-32.28,3.65-49.63C791.51,422.85,790.09,393.8,803.53,342.55L803.53,342.55z"/>
	</g>
</g>
<g>
	<path class="st2" d="M217.59,338.35c-10,0-18.11-11.07-18.11-24.74c0-13.66,8.1-24.73,18.11-24.73"/>
</g>
<g>
	<g>
		<path class="st0" d="M217.59,288.88h6.46c0.69,0,1.35,0.27,1.84,0.76c0.49,0.49,0.76,1.15,0.76,1.84v44.27
			c0,0.69-0.27,1.35-0.76,1.84c-0.49,0.49-1.15,0.76-1.84,0.76h-6.46V288.88z"/>
	</g>
</g>
</svg>
