<svg width="851" height="572" viewBox="0 0 703 572" fill="none" xmlns="http://www.w3.org/2000/svg">
<path d="M91.5109 68.347C110.384 68.347 125.684 53.047 125.684 34.1735C125.684 15.3 110.384 0 91.5109 0C72.6374 0 57.3374 15.3 57.3374 34.1735C57.3374 53.047 72.6374 68.347 91.5109 68.347Z" fill="#DF7F28"/>
<path d="M450.491 67.7992L446.799 71.5173L450.491 67.7992ZM471.283 130.269C471.283 131.66 471.835 132.993 472.819 133.977C473.802 134.96 475.136 135.512 476.526 135.512C477.917 135.512 479.25 134.96 480.233 133.977C481.217 132.993 481.769 131.66 481.769 130.269H471.283ZM388.569 47.547C410.398 47.5151 431.348 56.1415 446.824 71.5344L454.209 64.0897C436.771 46.7629 413.178 37.0504 388.595 37.0782L388.569 47.547ZM446.824 71.5344C454.596 79.2161 460.762 88.366 464.965 98.4522C469.169 108.538 471.325 119.359 471.309 130.286H481.795C481.81 117.975 479.38 105.784 474.644 94.42C469.909 83.0562 462.963 72.7465 454.209 64.0897L446.824 71.5344Z" fill="#DF7F28"/>
<path d="M434.077 86.0453L437.838 82.3872L434.077 86.0453ZM446.782 130.268C446.782 131.658 447.334 132.992 448.317 133.975C449.301 134.958 450.634 135.511 452.025 135.511C453.415 135.511 454.749 134.958 455.732 133.975C456.715 132.992 457.268 131.658 457.268 130.268H446.782ZM388.569 61.5696C387.864 61.541 387.159 61.6554 386.499 61.9058C385.838 62.1562 385.235 62.5375 384.726 63.0267C384.216 63.516 383.811 64.1032 383.534 64.753C383.257 65.4028 383.115 66.1019 383.115 66.8083C383.115 67.5146 383.257 68.2137 383.534 68.8635C383.811 69.5133 384.216 70.1005 384.726 70.5898C385.235 71.079 385.838 71.4603 386.499 71.7107C387.159 71.9611 387.864 72.0755 388.569 72.0469V61.5696ZM388.569 37.0596C387.179 37.0596 385.845 37.612 384.862 38.5952C383.879 39.5784 383.326 40.912 383.326 42.3025C383.326 43.6931 383.879 45.0266 384.862 46.0099C385.845 46.9931 387.179 47.5455 388.569 47.5455V37.0596ZM388.569 72.0469C396.357 72.0372 404.067 73.5947 411.241 76.6265C418.414 79.6584 424.904 84.1027 430.325 89.6948L437.838 82.3872C431.44 75.7918 423.782 70.5501 415.318 66.9738C406.854 63.3975 397.758 61.5597 388.569 61.5696V72.0469ZM430.325 89.6948C440.899 100.551 446.806 115.113 446.782 130.268H457.268C457.286 112.384 450.313 95.2011 437.838 82.3872L430.325 89.6948Z" fill="#DF7F28"/>
<path d="M431.515 130.268C431.517 124.628 430.407 119.042 428.249 113.831C426.091 108.619 422.928 103.884 418.94 99.8951C414.952 95.9063 410.217 92.7421 405.006 90.5834C399.795 88.4246 394.21 87.3135 388.569 87.3135V130.268H431.515Z" fill="#DF7F28"/>
<path d="M574.557 145.535H409.533C397.955 145.535 388.569 154.921 388.569 166.498V442.902C388.569 454.48 397.955 463.865 409.533 463.865H574.557C586.135 463.865 595.521 454.48 595.521 442.902V166.498C595.521 154.921 586.135 145.535 574.557 145.535Z" fill="#393234"/>
<path d="M191.11 110.436C191.112 107.068 191.925 103.751 193.481 100.763C195.036 97.7763 197.288 95.2078 200.046 93.275C202.804 91.3422 205.987 90.1021 209.326 89.6594C212.664 89.2168 216.06 89.5848 219.227 90.7321L358.294 141.166C362.342 142.633 365.84 145.312 368.312 148.837C370.785 152.363 372.111 156.564 372.112 160.87V434.592C372.112 437.959 371.3 441.277 369.745 444.264C368.191 447.251 365.94 449.82 363.182 451.753C360.425 453.686 357.242 454.926 353.904 455.369C350.566 455.812 347.17 455.443 344.004 454.296L204.937 403.871C200.887 402.405 197.388 399.727 194.914 396.201C192.44 392.676 191.112 388.474 191.11 384.167V110.436Z" fill="#6C6C6C"/>
<path d="M446.002 183.744V427.713C446.004 433.274 448.215 438.606 452.148 442.537C456.08 446.468 461.413 448.677 466.974 448.677H556.01C561.354 448.678 566.497 446.637 570.385 442.971L574.198 439.381C576.277 437.421 577.935 435.057 579.068 432.433C580.2 429.809 580.785 426.982 580.786 424.124V187.436C580.785 184.596 580.208 181.785 579.089 179.174C577.97 176.563 576.332 174.206 574.275 172.247L570.402 168.563C566.525 164.857 561.373 162.781 556.01 162.764H466.974C464.219 162.764 461.491 163.306 458.946 164.361C456.401 165.415 454.089 166.961 452.142 168.909C450.194 170.858 448.649 173.17 447.596 175.716C446.543 178.261 446.001 180.989 446.002 183.744Z" fill="#DF7F28"/>
<path d="M351.158 145.535H186.133C174.555 145.535 165.169 154.921 165.169 166.498V442.902C165.169 454.48 174.555 463.865 186.133 463.865H351.158C362.735 463.865 372.121 454.48 372.121 442.902V166.498C372.121 154.921 362.735 145.535 351.158 145.535Z" fill="#999999"/>
<path d="M200.482 226.527C200.485 223.85 201.308 221.239 202.839 219.044C204.371 216.849 206.538 215.176 209.049 214.25L347.439 162.763C349.421 162.028 351.551 161.784 353.648 162.05C355.744 162.316 357.746 163.085 359.481 164.292C361.216 165.498 362.634 167.107 363.613 168.98C364.592 170.853 365.104 172.935 365.105 175.048V448.659C365.102 451.337 364.28 453.949 362.748 456.146C361.217 458.342 359.049 460.016 356.538 460.944L218.164 512.406C216.183 513.146 214.051 513.395 211.952 513.132C209.853 512.869 207.849 512.101 206.111 510.894C204.373 509.688 202.953 508.079 201.973 506.204C200.993 504.329 200.481 502.245 200.482 500.129V226.527Z" fill="#C4C4C4" stroke="#C4C4C4" stroke-width="15"/>
<path d="M220.717 279.437L340.209 227.744C340.844 227.469 341.527 227.321 342.219 227.31C342.911 227.299 343.599 227.424 344.242 227.679C344.886 227.934 345.473 228.312 345.97 228.794C346.467 229.276 346.865 229.85 347.14 230.486C347.692 231.768 347.713 233.218 347.198 234.516C346.682 235.814 345.672 236.854 344.39 237.408L224.907 289.101C223.624 289.654 222.174 289.676 220.875 289.163C219.575 288.649 218.533 287.64 217.976 286.359C217.423 285.078 217.401 283.629 217.915 282.331C218.429 281.033 219.437 279.992 220.717 279.437Z" fill="#DF7F28"/>
<path d="M220.717 315.486L340.209 263.793C341.492 263.24 342.942 263.217 344.241 263.731C345.54 264.245 346.583 265.253 347.14 266.535C347.692 267.817 347.713 269.267 347.198 270.565C346.682 271.863 345.672 272.903 344.39 273.457L224.907 325.15C224.272 325.425 223.589 325.572 222.897 325.584C222.204 325.595 221.517 325.469 220.873 325.215C220.23 324.96 219.643 324.581 219.145 324.1C218.648 323.618 218.251 323.043 217.976 322.408C217.423 321.127 217.401 319.678 217.915 318.38C218.429 317.082 219.437 316.041 220.717 315.486Z" fill="#DF7F28"/>
<path d="M220.717 353.651L340.209 301.959C341.492 301.407 342.941 301.386 344.24 301.9C345.538 302.413 346.581 303.42 347.14 304.7C347.693 305.984 347.714 307.435 347.198 308.734C346.683 310.033 345.673 311.075 344.39 311.631L224.907 363.315C224.272 363.59 223.589 363.738 222.897 363.749C222.204 363.76 221.517 363.635 220.873 363.38C220.23 363.126 219.643 362.747 219.145 362.265C218.648 361.784 218.251 361.209 217.976 360.573C217.425 359.292 217.404 357.844 217.918 356.547C218.432 355.249 219.438 354.208 220.717 353.651Z" fill="#DF7F28"/>
<path d="M82.0445 203.259C70.7875 221.541 45.8749 227.615 26.3594 216.838C6.84391 206.06 0.230239 182.467 11.4786 164.211" stroke="#DF7F28" stroke-width="10" stroke-linecap="round"/>
<path d="M222.414 284.893C211.165 303.175 186.681 306.516 167.191 295.73C147.701 284.945 141.028 261.386 152.285 243.112" stroke="#DF7F28" stroke-width="10" stroke-linecap="round"/>
<path d="M81.5219 204.106C92.7702 185.824 117.691 179.742 137.207 190.528C156.722 201.313 163.37 224.864 152.113 243.146" stroke="#DF7F28" stroke-width="10" stroke-linecap="round"/>
<path d="M26.6421 153.58C21.2278 158.883 12.3182 153.511 14.4771 146.246L40.0751 60.1658C42.0454 53.5521 51.5804 52.9695 55.5983 58.5809C63.24 69.2553 72.518 74.2669 86.4393 75.8775C93.1129 76.6485 96.7196 84.9842 91.8707 89.6874L26.6421 153.58Z" fill="#393234"/>
<path d="M530.917 385.401V224C530.917 215.64 524.14 208.862 515.78 208.862H490.387C482.027 208.862 475.25 215.64 475.25 224V385.401C475.25 393.761 482.027 400.539 490.387 400.539H515.78C524.14 400.539 530.917 393.761 530.917 385.401Z" fill="#393234"/>
<path d="M515.523 335.875V273.533C515.523 270.888 513.379 268.744 510.734 268.744H495.433C492.788 268.744 490.644 270.888 490.644 273.533V335.875C490.644 338.519 492.788 340.664 495.433 340.664H510.734C513.379 340.664 515.523 338.519 515.523 335.875Z" fill="#B7B7B7"/>
<path d="M513.784 288.765V273.276C513.784 271.64 512.156 270.304 510.143 270.304H496.042C494.028 270.304 492.401 271.64 492.401 273.276V288.697C499.478 290.002 506.732 290.025 513.818 288.765H513.784Z" fill="#393234"/>
<path d="M513.784 336.304V321.149C510.311 320.534 506.791 320.224 503.264 320.224C499.616 320.241 495.978 320.585 492.392 321.252V336.347C492.392 337.983 494.02 339.319 496.033 339.319H510.143C512.156 339.242 513.784 337.94 513.784 336.304Z" fill="#393234"/>
<path d="M521.561 240.623C523.213 230.447 516.303 220.858 506.126 219.206C495.95 217.554 486.361 224.465 484.709 234.641C483.057 244.818 489.968 254.406 500.144 256.058C510.321 257.71 519.909 250.8 521.561 240.623Z" fill="#C4C4C4"/>
<path d="M503.118 226.75C504.939 226.75 506.416 224.387 506.416 221.473C506.416 218.558 504.939 216.195 503.118 216.195C501.296 216.195 499.82 218.558 499.82 221.473C499.82 224.387 501.296 226.75 503.118 226.75Z" fill="#393234"/>
<path d="M520.543 239.129C523.51 239.129 525.914 237.625 525.914 235.77C525.914 233.916 523.51 232.412 520.543 232.412C517.576 232.412 515.172 233.916 515.172 235.77C515.172 237.625 517.576 239.129 520.543 239.129Z" fill="#393234"/>
<path d="M516.744 225.799C518.841 223.701 519.479 220.937 518.167 219.626C516.856 218.314 514.092 218.952 511.994 221.049C509.897 223.147 509.259 225.911 510.571 227.222C511.882 228.534 514.646 227.896 516.744 225.799Z" fill="#393234"/>
<path d="M519.226 251.926C520.537 250.614 519.9 247.851 517.802 245.753C515.705 243.655 512.941 243.018 511.629 244.329C510.318 245.641 510.955 248.405 513.053 250.502C515.151 252.6 517.914 253.237 519.226 251.926Z" fill="#393234"/>
<path d="M503.084 258.61C504.938 258.61 506.442 256.205 506.442 253.239C506.442 250.272 504.938 247.867 503.084 247.867C501.229 247.867 499.725 250.272 499.725 253.239C499.725 256.205 501.229 258.61 503.084 258.61Z" fill="#393234"/>
<path d="M485.975 241.913C488.89 241.913 491.253 240.436 491.253 238.615C491.253 236.793 488.89 235.316 485.975 235.316C483.061 235.316 480.698 236.793 480.698 238.615C480.698 240.436 483.061 241.913 485.975 241.913Z" fill="#393234"/>
<path d="M492.279 253.07C494.34 251.009 494.967 248.294 493.679 247.006C492.391 245.718 489.676 246.344 487.615 248.405C485.554 250.466 484.927 253.181 486.216 254.469C487.504 255.757 490.218 255.13 492.279 253.07Z" fill="#393234"/>
<path d="M494.725 230.221C496.013 228.933 495.387 226.218 493.326 224.157C491.265 222.096 488.55 221.47 487.262 222.758C485.974 224.046 486.601 226.761 488.661 228.821C490.722 230.882 493.437 231.509 494.725 230.221Z" fill="#393234"/>
<path d="M521.866 372.796C523.549 362.433 516.511 352.668 506.148 350.986C495.785 349.304 486.02 356.341 484.338 366.704C482.655 377.068 489.693 386.832 500.056 388.515C510.419 390.197 520.184 383.159 521.866 372.796Z" fill="#C4C4C4"/>
<path d="M503.323 358.783C505.159 358.783 506.647 356.401 506.647 353.463C506.647 350.524 505.159 348.143 503.323 348.143C501.488 348.143 500 350.524 500 353.463C500 356.401 501.488 358.783 503.323 358.783Z" fill="#393234"/>
<path d="M520.603 374.067C523.541 374.067 525.923 372.579 525.923 370.743C525.923 368.907 523.541 367.419 520.603 367.419C517.665 367.419 515.283 368.907 515.283 370.743C515.283 372.579 517.665 374.067 520.603 374.067Z" fill="#393234"/>
<path d="M516.848 360.876C518.925 358.799 519.557 356.062 518.259 354.764C516.961 353.466 514.224 354.098 512.147 356.176C510.069 358.253 509.437 360.99 510.735 362.288C512.034 363.586 514.77 362.954 516.848 360.876Z" fill="#393234"/>
<path d="M519.304 386.724C520.602 385.426 519.97 382.689 517.892 380.612C515.815 378.534 513.078 377.902 511.78 379.2C510.482 380.498 511.114 383.235 513.191 385.313C515.269 387.39 518.006 388.022 519.304 386.724Z" fill="#393234"/>
<path d="M503.323 393.341C505.159 393.341 506.647 390.959 506.647 388.021C506.647 385.083 505.159 382.701 503.323 382.701C501.488 382.701 500 385.083 500 388.021C500 390.959 501.488 393.341 503.323 393.341Z" fill="#393234"/>
<path d="M485.975 374.451C488.89 374.451 491.253 372.974 491.253 371.153C491.253 369.331 488.89 367.854 485.975 367.854C483.061 367.854 480.698 369.331 480.698 371.153C480.698 372.974 483.061 374.451 485.975 374.451Z" fill="#393234"/>
<path d="M492.406 385.303C494.484 383.226 495.116 380.489 493.818 379.191C492.519 377.893 489.783 378.525 487.705 380.602C485.628 382.68 484.996 385.417 486.294 386.715C487.592 388.013 490.329 387.381 492.406 385.303Z" fill="#393234"/>
<path d="M494.536 362.196C495.847 360.885 495.21 358.121 493.112 356.024C491.014 353.926 488.251 353.289 486.939 354.6C485.628 355.911 486.265 358.675 488.363 360.773C490.461 362.87 493.224 363.508 494.536 362.196Z" fill="#393234"/>
<path d="M443.783 402.911V208.544C443.75 207.467 443.334 206.437 442.61 205.638C441.887 204.839 440.903 204.324 439.834 204.184L388.664 195.797V415.659L439.834 407.272C440.903 407.132 441.887 406.616 442.61 405.818C443.334 405.019 443.75 403.988 443.783 402.911Z" fill="black"/>
<path d="M441.633 399.965V211.493C441.603 210.452 441.205 209.456 440.508 208.682C439.811 207.908 438.861 207.407 437.829 207.269L388.569 199.131V412.328L437.829 404.189C438.861 404.051 439.811 403.55 440.508 402.777C441.205 402.003 441.603 401.006 441.633 399.965Z" fill="#393234"/>
<path d="M403.442 237.621C407.463 237.621 410.723 234.361 410.723 230.34C410.723 226.318 407.463 223.058 403.442 223.058C399.42 223.058 396.16 226.318 396.16 230.34C396.16 234.361 399.42 237.621 403.442 237.621Z" fill="black"/>
<path d="M430.659 311.982C434.68 311.982 437.941 308.722 437.941 304.7C437.941 300.678 434.68 297.418 430.659 297.418C426.637 297.418 423.377 300.678 423.377 304.7C423.377 308.722 426.637 311.982 430.659 311.982Z" fill="black"/>
<path d="M407.237 267.443C411.258 267.443 414.519 264.182 414.519 260.161C414.519 256.139 411.258 252.879 407.237 252.879C403.215 252.879 399.955 256.139 399.955 260.161C399.955 264.182 403.215 267.443 407.237 267.443Z" fill="black"/>
<path d="M403.561 388.416C407.536 388.416 410.758 385.194 410.758 381.22C410.758 377.245 407.536 374.023 403.561 374.023C399.587 374.023 396.365 377.245 396.365 381.22C396.365 385.194 399.587 388.416 403.561 388.416Z" fill="black"/>
<path d="M407.314 358.912C411.288 358.912 414.51 355.69 414.51 351.716C414.51 347.741 411.288 344.52 407.314 344.52C403.339 344.52 400.118 347.741 400.118 351.716C400.118 355.69 403.339 358.912 407.314 358.912Z" fill="black"/>
<path d="M611.567 418.229C623.844 418.229 635.846 421.87 646.054 428.691C656.263 435.512 664.219 445.207 668.917 456.55C673.616 467.893 674.845 480.374 672.45 492.416C670.055 504.457 664.142 515.518 655.461 524.2C646.779 532.881 635.719 538.794 623.677 541.189C611.635 543.584 599.154 542.355 587.811 537.656C576.468 532.958 566.773 525.001 559.952 514.793C553.131 504.585 549.491 492.583 549.491 480.305" stroke="#DF7F28" stroke-width="11" stroke-miterlimit="10" stroke-linecap="round"/>
<path d="M611.567 394.661C628.51 394.661 645.074 399.686 659.162 409.099C673.25 418.512 684.231 431.892 690.715 447.546C697.199 463.2 698.895 480.426 695.59 497.044C692.284 513.662 684.125 528.927 672.144 540.908C660.163 552.889 644.898 561.048 628.28 564.354C611.662 567.659 594.436 565.963 578.782 559.479C563.128 552.994 549.749 542.014 540.335 527.926C530.922 513.838 525.897 497.274 525.897 480.33" stroke="#DF7F28" stroke-width="11" stroke-miterlimit="10" stroke-linecap="round"/>
</svg>
