<svg width="851" height="441" viewBox="0 0 851 441" fill="none" xmlns="http://www.w3.org/2000/svg">
<g clip-path="url(#clip0_267_473)">
<path d="M849.464 417.863C846.763 414.602 839.55 411.711 828.943 409.626C794.317 402.849 750.345 415.74 657.643 405.436C634.638 402.877 626.43 399.891 626.42 396.906L626.601 390.526C626.003 393.597 633.956 396.707 657.795 399.361C750.497 409.655 794.478 396.763 829.085 403.55C846.213 406.906 854.678 412.081 849.464 417.844" fill="#B7B7B7"/>
<path d="M788.535 434.299C825.616 429.882 844.346 423.872 849.465 418.109L849.683 418.024C855.502 425.275 839.085 434.318 788.393 440.365C788.393 440.365 727.407 465.806 762.383 195.405H770.62C770.62 195.405 737.265 442.915 788.535 434.299Z" fill="#30302F"/>
<path d="M629.207 393.806C612.392 385.559 677.255 376.867 677.255 376.867L677.122 382.403C677.122 382.403 638.705 387.863 628.658 394.138" fill="#30302F"/>
<path d="M716.762 362.516C714.061 359.255 706.847 356.364 696.241 354.289C661.634 347.502 617.643 360.393 524.941 350.089C501.936 347.54 493.728 344.544 493.718 341.559L493.898 335.17C493.301 338.241 501.254 341.35 525.093 344.004C617.795 354.308 661.776 341.407 696.383 348.194C713.511 351.549 721.975 356.725 716.762 362.488" fill="#B7B7B7"/>
<path d="M655.691 386.109C706.383 380.061 722.8 369.928 716.98 362.687L716.762 362.762C711.644 368.516 692.762 375.654 655.691 380.08" fill="#30302F"/>
<path d="M461.841 52.4082H82.5785C71.894 52.4082 63.2324 61.0698 63.2324 71.7544V297.795C63.2324 308.479 71.894 317.141 82.5785 317.141H461.841C472.526 317.141 481.187 308.479 481.187 297.795V71.7544C481.187 61.0698 472.526 52.4082 461.841 52.4082Z" fill="#B7B7B7"/>
<path d="M459.301 73.9258H86.6262C83.4852 73.9258 80.939 76.4721 80.939 79.613V278.193C80.939 281.334 83.4852 283.881 86.6262 283.881H459.301C462.442 283.881 464.989 281.334 464.989 278.193V79.613C464.989 76.4721 462.442 73.9258 459.301 73.9258Z" fill="#F3F4F5"/>
<path d="M473.652 321.881H73.0337C70.1309 321.88 67.2654 322.534 64.6497 323.792C62.034 325.051 59.7354 326.882 57.9246 329.151L1.50721 399.749C0.704171 400.754 0.201227 401.966 0.0562328 403.244C-0.0887613 404.523 0.130085 405.816 0.687595 406.976C1.24511 408.135 2.11863 409.114 3.20769 409.799C4.29674 410.484 5.55709 410.848 6.84373 410.849H539.833C541.12 410.85 542.382 410.487 543.472 409.803C544.562 409.118 545.437 408.14 545.996 406.98C546.555 405.82 546.774 404.526 546.63 403.247C546.485 401.967 545.982 400.755 545.178 399.749L488.761 329.151C486.95 326.882 484.652 325.051 482.036 323.792C479.42 322.534 476.555 321.88 473.652 321.881Z" fill="#B7B7B7"/>
<path d="M330.087 372.241H217.357C216.336 372.239 215.342 372.566 214.522 373.174C213.702 373.782 213.101 374.638 212.807 375.616L206.229 397.161C206.008 397.872 205.958 398.625 206.083 399.359C206.208 400.093 206.504 400.787 206.947 401.385C207.39 401.983 207.968 402.468 208.634 402.802C209.299 403.135 210.034 403.307 210.778 403.303H336.656C337.403 403.311 338.141 403.143 338.81 402.811C339.479 402.48 340.061 401.995 340.507 401.396C340.953 400.798 341.252 400.102 341.378 399.366C341.505 398.63 341.455 397.874 341.234 397.161L334.599 375.616C334.307 374.644 333.711 373.793 332.899 373.185C332.087 372.578 331.101 372.247 330.087 372.241Z" fill="#6C6C6C"/>
<path d="M477.368 367.663H67.299C66.7762 367.673 66.2606 367.539 65.8091 367.275C65.3575 367.011 64.9875 366.628 64.7396 366.167C64.4918 365.707 64.3757 365.187 64.4041 364.665C64.4326 364.143 64.6045 363.638 64.9009 363.208L83.9721 334.288C84.4891 333.503 85.1925 332.858 86.0196 332.412C86.8467 331.965 87.7715 331.73 88.7115 331.729H455.927C456.867 331.73 457.792 331.965 458.619 332.412C459.446 332.858 460.149 333.503 460.666 334.288L479.728 363.208C480.022 363.636 480.194 364.136 480.224 364.655C480.254 365.174 480.141 365.691 479.898 366.15C479.654 366.609 479.29 366.993 478.844 367.26C478.398 367.526 477.887 367.666 477.368 367.663Z" fill="#6C6C6C"/>
<path d="M273.717 311.454C279.659 311.454 284.476 306.638 284.476 300.696C284.476 294.754 279.659 289.938 273.717 289.938C267.776 289.938 262.959 294.754 262.959 300.696C262.959 306.638 267.776 311.454 273.717 311.454Z" fill="#F3F4F5"/>
<path d="M598.657 204.173C575.482 204.173 556.705 178.514 556.705 146.864C556.705 115.215 575.482 89.5557 598.657 89.5557" fill="#DF7E26"/>
<path d="M598.657 204.173C610.247 204.173 619.643 178.515 619.643 146.864C619.643 115.214 610.247 89.5557 598.657 89.5557C587.067 89.5557 577.671 115.214 577.671 146.864C577.671 178.515 587.067 204.173 598.657 204.173Z" fill="#30302F"/>
<path d="M775.132 204.173C798.298 204.173 817.085 178.514 817.085 146.864C817.085 115.215 798.298 89.5557 775.132 89.5557" fill="#DF7E26"/>
<path d="M605.577 89.5558C605.577 43.4984 641.757 6.14258 686.393 6.14258C731.028 6.14258 767.208 43.4795 767.208 89.5558" stroke="#DF7E26" stroke-width="13" stroke-miterlimit="10"/>
<path d="M605.577 100.987C605.577 54.9301 641.757 17.5742 686.393 17.5742C731.028 17.5742 767.208 54.9111 767.208 100.987" stroke="#DF7E26" stroke-width="10" stroke-miterlimit="10"/>
<path d="M598.657 89.5557H613.624C615.22 89.5557 616.751 90.1898 617.88 91.3186C619.009 92.4474 619.643 93.9783 619.643 95.5747V198.154C619.643 199.75 619.009 201.281 617.88 202.41C616.751 203.539 615.22 204.173 613.624 204.173H598.657V89.5557Z" fill="#30302F"/>
<path d="M775.132 204.173C786.723 204.173 796.118 178.515 796.118 146.864C796.118 115.214 786.723 89.5557 775.132 89.5557C763.542 89.5557 754.146 115.214 754.146 146.864C754.146 178.515 763.542 204.173 775.132 204.173Z" fill="#30302F"/>
<path d="M775.132 204.183H760.175C758.576 204.183 757.043 203.547 755.912 202.417C754.782 201.286 754.146 199.753 754.146 198.154V95.6317C754.146 94.0329 754.782 92.4995 755.912 91.3689C757.043 90.2384 758.576 89.6032 760.175 89.6032H775.132V204.183Z" fill="#30302F"/>
<path d="M142.693 233.434C150.088 226.412 155.977 217.959 160.001 208.589C164.025 199.219 166.1 189.128 166.1 178.931C166.1 168.733 164.025 158.642 160.001 149.272C155.977 139.902 150.088 131.449 142.693 124.428" stroke="#DF7F28" stroke-width="10" stroke-miterlimit="10" stroke-linecap="round"/>
<path d="M177.982 215.539C182.958 210.822 186.922 205.141 189.63 198.843C192.339 192.544 193.736 185.759 193.736 178.903C193.736 172.047 192.339 165.262 189.63 158.963C186.922 152.665 182.958 146.984 177.982 142.268" stroke="#DF7F28" stroke-width="10" stroke-miterlimit="10" stroke-linecap="round"/>
<path d="M123.422 215.539C128.396 210.821 132.358 205.139 135.065 198.841C137.772 192.542 139.168 185.759 139.168 178.903C139.168 172.047 137.772 165.264 135.065 158.965C132.358 152.667 128.396 146.985 123.422 142.268" stroke="#DF7F28" stroke-width="10" stroke-miterlimit="10" stroke-linecap="round"/>
<path d="M103.318 197.225C105.804 194.865 107.783 192.024 109.135 188.875C110.487 185.726 111.185 182.335 111.185 178.908C111.185 175.48 110.487 172.089 109.135 168.94C107.783 165.791 105.804 162.95 103.318 160.59" stroke="#DF7F28" stroke-width="10" stroke-miterlimit="10" stroke-linecap="round"/>
<path d="M253.148 233.434C260.546 226.414 266.437 217.961 270.463 208.591C274.488 199.221 276.564 189.129 276.564 178.931C276.564 168.732 274.488 158.641 270.463 149.271C266.437 139.9 260.546 131.448 253.148 124.428" stroke="#DF7F28" stroke-width="10" stroke-miterlimit="10" stroke-linecap="round"/>
<path d="M288.447 215.539C293.421 210.821 297.383 205.139 300.09 198.841C302.796 192.542 304.193 185.759 304.193 178.903C304.193 172.047 302.796 165.264 300.09 158.965C297.383 152.667 293.421 146.985 288.447 142.268" stroke="#DF7F28" stroke-width="10" stroke-miterlimit="10" stroke-linecap="round"/>
<path d="M233.878 215.539C238.855 210.822 242.818 205.141 245.527 198.843C248.235 192.544 249.632 185.759 249.632 178.903C249.632 172.047 248.235 165.262 245.527 158.963C242.818 152.665 238.855 146.984 233.878 142.268" stroke="#DF7F28" stroke-width="10" stroke-miterlimit="10" stroke-linecap="round"/>
<path d="M213.793 197.225C216.281 194.867 218.262 192.026 219.616 188.877C220.97 185.728 221.668 182.336 221.668 178.908C221.668 175.48 220.97 172.088 219.616 168.938C218.262 165.789 216.281 162.948 213.793 160.59" stroke="#DF7F28" stroke-width="10" stroke-miterlimit="10" stroke-linecap="round"/>
<path d="M363.613 233.434C371.008 226.412 376.897 217.959 380.921 208.589C384.945 199.219 387.021 189.128 387.021 178.931C387.021 168.733 384.945 158.642 380.921 149.272C376.897 139.902 371.008 131.449 363.613 124.428" stroke="#DF7F28" stroke-width="10" stroke-miterlimit="10" stroke-linecap="round"/>
<path d="M398.912 215.539C403.886 210.821 407.847 205.139 410.554 198.841C413.261 192.542 414.657 185.759 414.657 178.903C414.657 172.047 413.261 165.264 410.554 158.965C407.847 152.667 403.886 146.985 398.912 142.268" stroke="#DF7F28" stroke-width="10" stroke-miterlimit="10" stroke-linecap="round"/>
<path d="M344.343 215.539C349.317 210.821 353.279 205.139 355.986 198.841C358.692 192.542 360.089 185.759 360.089 178.903C360.089 172.047 358.692 165.264 355.986 158.965C353.279 152.667 349.317 146.985 344.343 142.268" stroke="#DF7F28" stroke-width="10" stroke-miterlimit="10" stroke-linecap="round"/>
<path d="M324.258 197.225C326.745 194.867 328.727 192.026 330.08 188.877C331.434 185.728 332.133 182.336 332.133 178.908C332.133 175.48 331.434 172.088 330.08 168.938C328.727 165.789 326.745 162.948 324.258 160.59" stroke="#DF7F28" stroke-width="10" stroke-miterlimit="10" stroke-linecap="round"/>
<path d="M434.723 195.983C437.208 193.623 439.187 190.782 440.54 187.633C441.892 184.484 442.589 181.093 442.589 177.665C442.589 174.238 441.892 170.847 440.54 167.698C439.187 164.549 437.208 161.708 434.723 159.348" stroke="#DF7F28" stroke-width="10" stroke-miterlimit="10" stroke-linecap="round"/>
<path d="M708.857 11.4414H662.781V14.9201H708.857V11.4414Z" fill="#DF7E26"/>
</g>
<defs>
<clipPath id="clip0_267_473">
<rect width="851" height="441" fill="white"/>
</clipPath>
</defs>
</svg>
